<svg id="Слой_1" data-name="Слой 1" xmlns="http://www.w3.org/2000/svg" viewBox="0 0 87.83 73.17"><title>apple-touch-iconМонтажная область 176</title><path d="M82.71,43A15.45,15.45,0,0,0,74.5,21.36v0a21,21,0,0,0-41.31-5.24,15.16,15.16,0,0,0-4.69-.76A15,15,0,0,0,13.61,28.59,11.5,11.5,0,0,0,16,51.33l.53,0c0,.18,0,.35,0,.52A20.49,20.49,0,0,0,52.93,64.72a12,12,0,0,0,19.24-2.9A11,11,0,0,0,86.5,51.33,11,11,0,0,0,82.71,43Z" fill="#ff6c37" opacity="0.9"/><path d="M11,37.33H1a.5.5,0,0,1-.5-.5.5.5,0,0,1,.5-.5H11a.5.5,0,0,1,.5.5A.5.5,0,0,1,11,37.33Zm3,0H13a.5.5,0,0,1-.5-.5.5.5,0,0,1,.5-.5h1a.5.5,0,0,1,.5.5A.5.5,0,0,1,14,37.33Zm5,2H10a.5.5,0,0,1-.5-.5.5.5,0,0,1,.5-.5h9a.5.5,0,0,1,.5.5A.5.5,0,0,1,19,39.33Zm-11,0H7a.5.5,0,0,1-.5-.5.5.5,0,0,1,.5-.5H8a.5.5,0,0,1,.5.5A.5.5,0,0,1,8,39.33Zm-3,0H3a.5.5,0,0,1-.5-.5.5.5,0,0,1,.5-.5H5a.5.5,0,0,1,.5.5A.5.5,0,0,1,5,39.33Zm6,2H9a.5.5,0,0,1-.5-.5.5.5,0,0,1,.5-.5h2a.5.5,0,0,1,.5.5A.5.5,0,0,1,11,41.33Zm3-9H13a.5.5,0,0,0-.5.5.5.5,0,0,0,.5.5h1a.5.5,0,0,0,.5-.5A.5.5,0,0,0,14,32.33Zm0,2H9a.5.5,0,0,0-.5.5.5.5,0,0,0,.5.5h5a.5.5,0,0,0,.5-.5A.5.5,0,0,0,14,34.33Zm5,2H16a.5.5,0,0,0-.5.5.5.5,0,0,0,.5.5h3a.5.5,0,0,0,.5-.5A.5.5,0,0,0,19,36.33Zm49-26H58a.5.5,0,0,1-.5-.5.5.5,0,0,1,.5-.5H68a.5.5,0,0,1,.5.5A.5.5,0,0,1,68,10.33Zm4,0H70a.5.5,0,0,1-.5-.5.5.5,0,0,1,.5-.5h2a.5.5,0,0,1,.5.5A.5.5,0,0,1,72,10.33Zm5,2H67a.5.5,0,0,1-.5-.5.5.5,0,0,1,.5-.5H77a.5.5,0,0,1,.5.5A.5.5,0,0,1,77,12.33Zm-12,0H64a.5.5,0,0,1-.5-.5.5.5,0,0,1,.5-.5h1a.5.5,0,0,1,.5.5A.5.5,0,0,1,65,12.33Zm-3,0H60a.5.5,0,0,1-.5-.5.5.5,0,0,1,.5-.5h2a.5.5,0,0,1,.5.5A.5.5,0,0,1,62,12.33Zm9-4H66a.5.5,0,0,1-.5-.5.5.5,0,0,1,.5-.5h5a.5.5,0,0,1,.5.5A.5.5,0,0,1,71,8.33Zm-3,6H66a.5.5,0,0,1-.5-.5.5.5,0,0,1,.5-.5h2a.5.5,0,0,1,.5.5A.5.5,0,0,1,68,14.33Z" fill="#fff"/><path d="M46.78,10.35A15.28,15.28,0,0,0,32.5,25.76v7.57h6V25.64a9.21,9.21,0,0,1,8.4-9.29,9,9,0,0,1,9.6,9,3,3,0,0,0,6,0A15,15,0,0,0,46.78,10.35Z" fill="#e6e5e3" stroke="#000" stroke-miterlimit="10" stroke-width="0.5"/><path d="M47.5,10.33l-.72,0A15.28,15.28,0,0,0,32.5,25.76v7.57h6V25.64a9.21,9.21,0,0,1,8.4-9.29l.6,0a9,9,0,0,1,9,9,3,3,0,0,0,6,0A15,15,0,0,0,47.5,10.33Zm12,16.6a1.6,1.6,0,0,1-1.6-1.6,10.41,10.41,0,0,0-10.4-10.4q-.34,0-.69,0A10.58,10.58,0,0,0,37.1,25.64v6.29H33.9V25.76a13.79,13.79,0,0,1,12.94-14l.66,0a13.61,13.61,0,0,1,13.6,13.6A1.6,1.6,0,0,1,59.5,26.93Z" fill="#472b29"/><path d="M63.1,31.83H31.9A3.88,3.88,0,0,0,28,35.69v13.5a9.69,9.69,0,0,0,9.75,9.64h19.5A9.69,9.69,0,0,0,67,49.19V35.69A3.88,3.88,0,0,0,63.1,31.83Z" fill="#7e776d"/><path d="M28.5,36.33h38v6.5h-38Z" fill="#f1bc19"/><path d="M49.5,48.33a2,2,0,1,0-3.2,1.6l-.8,4.4h4l-.8-4.4A2,2,0,0,0,49.5,48.33Z" fill="#e6e5e3" stroke="#000" stroke-miterlimit="10" stroke-width="0.25"/><path d="M63.5,31.33h-32a4,4,0,0,0-4,4v14a10,10,0,0,0,10,10h20a10,10,0,0,0,10-10v-14A4,4,0,0,0,63.5,31.33Zm2.6,18a8.61,8.61,0,0,1-8.6,8.6h-20a8.61,8.61,0,0,1-8.6-8.6v-14a2.61,2.61,0,0,1,2.6-2.6h32a2.61,2.61,0,0,1,2.6,2.6Z" fill="#472b29" stroke="#000" stroke-miterlimit="10" stroke-width="0.25"/><path d="M66.5,36.33H63a.5.5,0,0,0-.5.5.5.5,0,0,0,.5.5h3.5a.5.5,0,0,0,.5-.5A.5.5,0,0,0,66.5,36.33Zm-6.5,1H58a.5.5,0,0,1-.5-.5.5.5,0,0,1,.5-.5h2a.5.5,0,0,1,.5.5A.5.5,0,0,1,60,37.33Zm-5,0H28.5a.5.5,0,0,1-.5-.5.5.5,0,0,1,.5-.5H55a.5.5,0,0,1,.5.5A.5.5,0,0,1,55,37.33Zm11.5,6h-38a.5.5,0,0,1-.5-.5.5.5,0,0,1,.5-.5h38a.5.5,0,0,1,.5.5A.5.5,0,0,1,66.5,43.33Zm-19,3.35a1.65,1.65,0,0,1,1,3,.35.35,0,0,0-.14.34l.73,4H45.92l.73-4a.35.35,0,0,0-.14-.34,1.65,1.65,0,0,1,1-3m0-.35a2,2,0,0,0-1.2,3.6l-.8,4.4h4l-.8-4.4a2,2,0,0,0-1.2-3.6Z" fill="#472b29"/><path d="M28.36,42.73l4.21-6,.28.2-4.2,6Z" fill="#472b29"/><path d="M32.15,42.73l4.21-6,.28.2-4.2,6Z" fill="#472b29"/><path d="M35.86,42.73l4.21-6,.28.2-4.2,6Z" fill="#472b29"/><path d="M39.65,42.73l4.2-6,.29.2-4.2,6Z" fill="#472b29"/><path d="M43.36,42.73l4.2-6,.29.2-4.2,6Z" fill="#472b29"/><path d="M47.15,42.73l4.2-6,.29.2-4.2,6Z" fill="#472b29"/><path d="M50.86,42.73l4.2-6,.29.2-4.2,6Z" fill="#472b29"/><path d="M54.65,42.73l4.2-6,.29.2-4.2,6Z" fill="#472b29"/><path d="M58.36,42.73l4.2-6,.29.2-4.2,6Z" fill="#472b29"/><path d="M62.15,42.73l4.2-6,.29.2-4.2,6Z" fill="#472b29"/><path d="M82.5,53.83a4.69,4.69,0,0,0-.54.06,3.47,3.47,0,0,0-6.15-1.77A5,5,0,1,0,66,50.57a4.48,4.48,0,0,0-8,2.76,3.31,3.31,0,0,0,.06.55,4.49,4.49,0,0,0,.44,8.95h24a4.5,4.5,0,0,0,0-9Z" fill="#fff"/><path d="M82.5,53.33h-.14a4,4,0,0,0-5.86-2.46v-.05A5.49,5.49,0,0,0,65.68,49.5a4.91,4.91,0,0,0-3.18-1.17,5,5,0,0,0-5,5v.13a5,5,0,0,0,1,9.87H65a.5.5,0,0,0,.5-.5.5.5,0,0,0-.5-.5H58.5a4,4,0,0,1-.4-7.95.49.49,0,0,0,.34-.19.46.46,0,0,0,.11-.37l0-.14c0-.12,0-.23,0-.35a4,4,0,0,1,7.13-2.45.53.53,0,0,0,.4.19l.15,0a.53.53,0,0,0,.35-.45,4.49,4.49,0,0,1,9,.23A4.28,4.28,0,0,1,75.33,52a.51.51,0,0,0,.25.57.53.53,0,0,0,.23.06.51.51,0,0,0,.39-.19A3,3,0,0,1,81.46,54a.5.5,0,0,0,.49.44h.21a1.86,1.86,0,0,1,.34,0,4,4,0,0,1,0,8H68a.5.5,0,0,0-.5.5.5.5,0,0,0,.5.5H82.5a5,5,0,0,0,0-10Z" fill="#472b29"/><path d="M79.56,56.33a3,3,0,0,0-.58.07,2.37,2.37,0,0,0-3.57-1.73,3,3,0,0,0-2.91-2.34,2.79,2.79,0,0,0-.82.13.25.25,0,0,0-.17.31.25.25,0,0,0,.24.18h.07A2.44,2.44,0,0,1,75,55.14a.25.25,0,0,0,.16.21l.09,0a.23.23,0,0,0,.16-.06,1.86,1.86,0,0,1,3.11,1.4.28.28,0,0,0,.1.21.3.3,0,0,0,.16,0h.07a2.5,2.5,0,0,1,.73-.13A2.44,2.44,0,0,1,82,59.1a.25.25,0,0,0,.25.23h0a.25.25,0,0,0,.23-.26A2.94,2.94,0,0,0,79.56,56.33Zm-20.94-2.5A3,3,0,0,1,61.49,56a.24.24,0,0,1-.17.3h-.07a.25.25,0,0,1-.24-.18,2.5,2.5,0,0,0-2.39-1.82c-.12,0-.23,0-.34,0h0a.27.27,0,0,1-.25-.22.26.26,0,0,1,.22-.28,2.71,2.71,0,0,1,.41,0Z" fill="#472b29"/><path d="M31.94,46.88a3.31,3.31,0,0,0,.06-.55A3.49,3.49,0,0,0,25.91,44a4,4,0,0,0-7.91.83,3.43,3.43,0,0,0,.06.56,2.52,2.52,0,0,0-1.56-.56,2.49,2.49,0,0,0-2.45,2.06,3.31,3.31,0,0,0-.55-.06,3.5,3.5,0,0,0,0,7h18a3.49,3.49,0,0,0,.44-6.95Z" fill="#fff"/><path d="M29.75,49.33a.25.25,0,0,1-.25-.25,2.21,2.21,0,0,1,2.22-2.21A5.32,5.32,0,0,1,33,47a.26.26,0,0,1,.18.31.25.25,0,0,1-.31.17,4.37,4.37,0,0,0-1.11-.11A1.72,1.72,0,0,0,30,49.08.25.25,0,0,1,29.75,49.33Zm-6.75,4a.5.5,0,0,0-.5.5.5.5,0,0,0,1,0A.5.5,0,0,0,23,53.33Z" fill="#472b29"/><path d="M32.5,46.48v-.15a4,4,0,0,0-6.35-3.22,4.5,4.5,0,0,0-8.64,1.4,2.87,2.87,0,0,0-1-.18,3,3,0,0,0-2.83,2H13.5a4,4,0,0,0,0,8H21a.5.5,0,0,0,.5-.5.5.5,0,0,0-.5-.5H13.5a3,3,0,0,1,0-6,3.75,3.75,0,0,1,.47.05.5.5,0,0,0,.57-.4,2,2,0,0,1,3.2-1.2.5.5,0,0,0,.56,0,.54.54,0,0,0,.24-.54,2.85,2.85,0,0,1,0-.42,3.5,3.5,0,0,1,6.92-.73.5.5,0,0,0,.36.38.49.49,0,0,0,.5-.15,3,3,0,0,1,2.22-1,3,3,0,0,1,3,3,3.56,3.56,0,0,1-.05.47.52.52,0,0,0,.1.38.45.45,0,0,0,.33.19,3,3,0,0,1-.38,6H28a.5.5,0,0,0-.5.5.5.5,0,0,0,.5.5h3.5a4,4,0,0,0,1-7.85Z" fill="#472b29"/><path d="M26,53.33H25a.5.5,0,0,0-.5.5.5.5,0,0,0,.5.5h1a.5.5,0,0,0,.5-.5A.5.5,0,0,0,26,53.33Z" fill="#472b29"/></svg>