<svg id="Слой_1" data-name="Слой 1" xmlns="http://www.w3.org/2000/svg" viewBox="0 0 465 465"><defs><style>.cls-1{fill:#ff6c37;}.cls-2{fill:#ff916a;}.cls-3{fill:#fff;}</style></defs><title>apple-touch-iconrev.2 - favicon76</title><path class="cls-1" d="M481.29,285.8a28.38,28.38,0,0,1-2.18,8.63c-3.27,7-10.9,11.32-18.63,12.2s-15.51-1.24-22.64-4.35-13.75-7.2-20.75-10.55c-16.42-7.87-60.42-26.68-78.85-11a15.42,15.42,0,0,0-5.13,10.18c-1.19,11,6.33,20.65,12.41,30s18.89,19.08,25.61,28c6.32,8.38,27.19,34.57,5.76,47.61-2.74,1.67-6.28,1.24-9.42.56a22.49,22.49,0,0,1-6.71-2.43c-4.27-2.51-7.17-6.89-8.83-11.53-12.09-33.4-35.39-78-53.3-79.38a11,11,0,0,0-8.49,2.54c-5.7,5.31-6.59,13.86-6.59,21.61a165.49,165.49,0,0,0,3.62,34.08c1.39,6.56,3.19,13,4.54,19.59.27,1.33.53,2.67.76,4a148.43,148.43,0,0,1,1.22,43.63c-1.33,11-4,22.1-9.68,31.65s-14.8,17.51-25.69,20.1-23.52-1-30-10A42.29,42.29,0,0,1,223,459.49a78.41,78.41,0,0,1-3.89-16.08c0-.28-.07-.56-.09-.83-1.71-17.74,5.76-35,13.07-51.35C241,371.36,264,323.88,248.93,317c-6.08-2.76-13.19,1.95-18.49,6-15.07,11.57-23.29,29.82-36.67,43.29-11.05,11.12-25.35,18.66-40.29,23.6-6.31,2.08-12.86,3.74-19.52,3.69s-13.46-1.94-18.49-6.26c-3.28-2.84-5.77-6.89-5.64-11.2.11-3.29,1.69-6.36,3.55-9.09,7-10.27,18-17.24,29.4-22.16s23.6-8.08,35.25-12.5c10.62-4,20.9-9.13,29.7-16.25s16.06-16.33,19.67-27c2-5.78,2.66-12.63-1-17.55a15.59,15.59,0,0,0-5.94-4.64c-9.88-4.7-21.8-1.62-31.44,3.54s-18.21,12.31-28.38,16.34a51.86,51.86,0,0,1-23.51,3.46c-8.37-.73-16.86-3.75-22.41-10s-7.32-16.11-2.71-23.06c2.82-4.25,7.53-6.9,12.34-8.69,10.58-3.93,22.19-4.31,33.45-3.25,13.82,1.3,28,4.66,41.35.85,5.26-1.5,12.17-3.18,13.14-8.52,1-5.7-1.49-11.59-5.37-15.92s-9-7.36-14.07-10.23c-26-14.61-54.18-27-74.27-48.93-4.52-4.93-7.4-10.92-9.78-17.15-6.52-17,6.19-29.56,12.76-32.59,6-2.74,13.27-.67,18.38,3.43s8.44,9.92,11.6,15.62c9,16.17,17.63,32.88,30.64,46.06s31.5,22.56,49.93,19.92c10.14-1.45,20.24-7.14,24.24-16.49,4.6-10.73.32-22.86-1.62-34.35a83,83,0,0,1-.44-24.93c.72-5.46,2.06-11,5.32-15.5s8.77-7.66,14.28-6.88C283,101,287.48,111.92,286.42,121s-7.23,17.14-7.43,26.23c-1.06,45.92,29.56,34.73,42.26,15,5.05-7.82,10.19-15.52,14.14-23.95,10.78-22.94,23.22-45.47,40.64-64,4.12-4.36,8.62-8.57,14.11-11s12.19-2.94,17.43,0c5.92,3.37,8.84,10.6,8.51,17.36s-3.42,13.11-7.17,18.78a87.66,87.66,0,0,1-15.8,17.74c-71.85,62.4-53.69,77.73-49,80s10.23,1.92,15.41,1.12a98,98,0,0,0,30.69-10.1c7.78-4.08,15-9.24,23.15-12.56l.17-.07.66-.26c.46-.19.93-.36,1.39-.53,9-3.24,19.93-3.54,27.47,2.34a14.24,14.24,0,0,1,5.56,8.64c.81,5-2,10-5.59,13.7-6.42,6.6-15.72,9.22-24.9,10.35-5.89.73-12.52,1.73-19.19,3.11a128,128,0,0,0-23.41,6.89c-14.42,6.09-23.8,15.23-17.24,28.89,3.47,7.23,14.93,6,23,6.58,2,.16,4,.27,5.94.36,20.62,1,41.31-1,62-.53,10.12.24,21.46,1.69,27.71,9.58C481.51,270.48,482.15,278.47,481.29,285.8Z" transform="translate(-23.5 -23.5)"/><path class="cls-1" d="M257.56,41.84c-4.41,10.94-9.2,32.72,12.76,34.23,6.44.45,13.14-3.25,15.83-9C304.88,26.69,265.7,21.69,257.56,41.84Z" transform="translate(-23.5 -23.5)"/><path class="cls-1" d="M30.38,275c.31,11.92,13.14,28.77,39.27,20.65C81.54,292,82.88,278.3,83,273.2a23.3,23.3,0,0,0-1.36-9.45c-2.17-5.31-7.26-9-12.71-10.95C52.53,247,29.87,254.73,30.38,275Z" transform="translate(-23.5 -23.5)"/><path class="cls-1" d="M399.83,451.3c13.25,24.82,60,16.76,36.62-25-7.5-13.38-23.83-17.8-32.25-12.1C394.35,420.89,393.1,438.7,399.83,451.3Z" transform="translate(-23.5 -23.5)"/><path class="cls-2" d="M293.69,429.12c-1.33,11-4,22.1-9.68,31.65s-14.8,17.51-25.69,20.1-23.52-1-30-10A42.29,42.29,0,0,1,223,459.49a78.41,78.41,0,0,1-3.89-16.08c0-.28-.07-.56-.09-.83,12,8.88,20.68,15,36.91,9.6s34.53-31.37,36.54-66.69A148.43,148.43,0,0,1,293.69,429.12Z" transform="translate(-23.5 -23.5)"/><path class="cls-2" d="M388.57,80.66a32.89,32.89,0,0,1-7.17,18.78c-63.92,79.08-42.4,97.54-39,96.63-5.73-4.67-14-22.69,50.69-78.88a87.66,87.66,0,0,0,15.8-17.74c3.75-5.67,6.83-12,7.17-18.78s-2.59-14-8.51-17.36c-5.24-3-11.93-2.49-17.43,0a32.28,32.28,0,0,0-5.93,3.54A20.45,20.45,0,0,1,388.57,80.66Z" transform="translate(-23.5 -23.5)"/><path class="cls-2" d="M443,199.44c-6.42,6.6-15.72,9.22-24.9,10.35-5.89.72-12.52,1.73-19.19,3.11,7.73-3.72,14.59-9.3,18.8-11.94,13.23-8.27.58-21.71-2.19-23.88a22.38,22.38,0,0,0-2.18-1.46l.17-.07.66-.26c.46-.19.93-.36,1.39-.53,9-3.24,19.93-3.54,27.47,2.34a14.24,14.24,0,0,1,5.56,8.64C449.44,190.78,446.62,195.76,443,199.44Z" transform="translate(-23.5 -23.5)"/><path class="cls-2" d="M345.52,320.86c-6.08-9.34-13.6-18.95-12.41-30a15.42,15.42,0,0,1,5.13-10.18,23.13,23.13,0,0,1,8-4.33c-38.43,5.77-8.38,57.88-4.51,63,5.45,7.23,23.58,37.15,14.24,51a17.87,17.87,0,0,0,4.79,4.21,22.49,22.49,0,0,0,6.71,2.43c3.14.68,6.68,1.11,9.42-.56,21.43-13,.56-39.23-5.76-47.61C364.41,339.94,351.59,330.19,345.52,320.86Z" transform="translate(-23.5 -23.5)"/><path class="cls-2" d="M476.91,264.67c-6.25-7.89-17.59-9.34-27.72-9.58-7.63-.18-15.27,0-22.91.2,8.8.61,17.79,2.66,23.11,9.37,4.6,5.8,5.24,13.8,4.39,21.13a28.11,28.11,0,0,1-2.19,8.63,20.75,20.75,0,0,1-9.63,9.51c6,2.16,12.26,3.41,18.52,2.7,7.73-.88,15.36-5.2,18.63-12.2a28.38,28.38,0,0,0,2.18-8.63C482.15,278.47,481.51,270.48,476.91,264.67Z" transform="translate(-23.5 -23.5)"/><path class="cls-2" d="M226.38,326.46c-.22-4.59-1.7-8-5-9.46-6.08-2.76-13.19,1.95-18.48,6-15.08,11.57-23.3,29.82-36.68,43.29-11,11.12-25.35,18.66-40.29,23.59-1.39.46-2.8.9-4.22,1.3A31.89,31.89,0,0,0,134,393.6c6.66,0,13.21-1.61,19.52-3.7,14.94-4.93,29.24-12.47,40.29-23.59C205.89,354.11,213.8,338,226.38,326.46Z" transform="translate(-23.5 -23.5)"/><path class="cls-2" d="M124.05,131.85c36.14,46,85.24,65.07,87.5,64.29-11-3.27-21.23-10-29.35-18.22-13-13.18-21.67-29.89-30.64-46.06-3.16-5.7-6.51-11.52-11.6-15.62s-12.42-6.17-18.38-3.43a24.46,24.46,0,0,0-7,5.32C118.5,122,120.6,127.46,124.05,131.85Z" transform="translate(-23.5 -23.5)"/><path class="cls-3" d="M482.31,260.46c-8.16-10.3-21.9-11.92-32.95-12.18-9.62-.23-19.31.07-28.69.36-12.8.4-26.05.82-38.85-.17-1.65-.12-3.39-.18-5.07-.23-4.46-.14-11.22-.35-12.25-2.49-2.35-4.92-1.36-7.78-.4-9.5,4.81-8.7,25.33-16.06,54.89-19.7,13-1.6,22.45-5.65,29-12.39,5.84-6,8.48-12.93,7.42-19.49a20.82,20.82,0,0,0-8.1-12.92c-8.58-6.69-21.31-8-34.06-3.39-6.58,2.36-12.42,5.81-18.06,9.14-2.81,1.66-5.47,3.23-8.19,4.66a90.59,90.59,0,0,1-28.53,9.39c-3.61.56-8.17,1-11.37-.53-.21-.1-1.26-.71-1.55-2.8-.58-4.34,1.44-21.93,52.09-65.91a94.85,94.85,0,0,0,17-19.14C419.89,95.26,422.6,88,423,81c.49-9.93-4.2-19.2-12-23.6-6.74-3.83-15.59-3.95-23.68-.33-6.76,3-12,8.07-16.3,12.59-19.37,20.55-32.54,45.93-41.85,65.74-3.39,7.23-7.71,13.9-12.29,21l-1.42,2.19c-5.92,9.18-15.88,15.43-21.75,13.66-5.23-1.57-8.16-10.88-7.84-24.9.09-3.67,1.65-7.6,3.3-11.75,1.72-4.31,3.49-8.77,4.09-13.83,1.47-12.39-5.13-26.93-18.36-28.8-7.61-1.08-15.79,2.71-20.84,9.64-4.49,6.17-5.9,13.57-6.56,18.59a89.79,89.79,0,0,0,.47,26.94c.42,2.47.94,5,1.44,7.36,1.78,8.55,3.46,16.63.65,23.21-2.69,6.28-10.11,11.15-18.9,12.41-14.43,2.07-30.89-4.64-44-17.94-.77-.77-1.55-1.59-2.31-2.42a6.91,6.91,0,0,0-9.71-.47,6.76,6.76,0,0,0-.48,9.62c.88,1,1.77,1.9,2.66,2.8,14.16,14.33,31.88,22.39,48.65,22.4a50.36,50.36,0,0,0,7.18-.51c13.66-2,25-9.84,29.59-20.57,4.49-10.49,2.19-21.54.16-31.28-.5-2.39-1-4.64-1.34-6.86a76.84,76.84,0,0,1-.41-22.91c.76-5.67,2.05-9.61,4.09-12.4s5.2-4.48,7.73-4.13c4.58.65,7.34,7.92,6.65,13.73-.39,3.3-1.77,6.76-3.23,10.42-1.93,4.85-4.11,10.34-4.25,16.44-.34,14.93,2.43,33.68,17.58,38.24,13.66,4.13,29.13-6.61,37.36-19.35l1.4-2.17c4.62-7.14,9.4-14.53,13.19-22.58,8.87-18.9,21.38-43,39.42-62.19,3.51-3.72,7.38-7.44,11.92-9.47,4-1.8,8.29-1.91,11.16-.28,3.22,1.83,5.3,6.4,5.07,11.12-.23,4.52-2.21,9.54-6.06,15.38a81,81,0,0,1-14.58,16.35c-40.5,35.18-59,60.7-56.63,78a16.87,16.87,0,0,0,9.21,13.21c6.62,3.15,13.86,2.57,19.44,1.71a104.51,104.51,0,0,0,32.87-10.81c3-1.59,6-3.32,8.78-5,5.33-3.14,10.36-6.12,15.71-8,6.36-2.28,15.19-3.14,20.87,1.28a7.51,7.51,0,0,1,3,4.37c.36,2.17-1.05,5.12-3.74,7.89-4.28,4.4-11.09,7.13-20.8,8.32-36,4.43-57.91,13.4-65.26,26.67-2.55,4.62-4.62,12.17.05,21.9s16,10,24.24,10.26c1.6.05,3.11.09,4.44.2,13.55,1,27.17.61,40.35.2,9.18-.28,18.68-.58,27.92-.36,8,.19,17.85,1.15,22.46,7,3.5,4.42,3.55,11.22,3,16.14a21.26,21.26,0,0,1-1.59,6.57c-2,4.35-7.2,7.61-13.17,8.29-5.51.62-11.75-.62-19.07-3.82-3-1.32-6-2.86-8.51-4.19a6.92,6.92,0,0,0-9.31,2.79,6.78,6.78,0,0,0,2.82,9.22c2.74,1.45,6,3.14,9.45,4.64,7.87,3.44,15,5.14,21.77,5.14a38.19,38.19,0,0,0,4.43-.25c10.79-1.23,20-7.4,24.08-16.11a34.69,34.69,0,0,0,2.77-10.7C489.4,275.73,487.44,266.93,482.31,260.46Z" transform="translate(-23.5 -23.5)"/><path class="cls-3" d="M377.25,345.58l-.62-.82c-3.34-4.43-7.92-8.91-12.35-13.25-4.95-4.85-10.06-9.86-13-14.34-.72-1.11-1.47-2.23-2.21-3.35-5.11-7.66-9.93-14.9-9.14-22.22a8.62,8.62,0,0,1,2.76-5.74c8.88-7.53,30.07-5.3,58.14,6.14a6.9,6.9,0,0,0,9-3.71,6.78,6.78,0,0,0-3.75-8.89c-34.47-14-58.8-15.35-72.32-3.88a22.13,22.13,0,0,0-7.49,14.62c-1.32,12.19,5.41,22.28,11.34,31.18.72,1.08,1.43,2.15,2.12,3.22,3.74,5.74,9.4,11.29,14.88,16.66a116.19,116.19,0,0,1,11,11.72l.64.84c4.06,5.35,14.85,19.57,13,29.25-.37,1.95-1.4,4.86-6,7.64-.08.05-.88.45-4.34-.29a15.76,15.76,0,0,1-4.67-1.64c-2.45-1.44-4.54-4.27-5.87-8-6.87-19-16-38.31-25.07-53-12.35-20-23.53-30.12-34.18-30.91a17.84,17.84,0,0,0-13.72,4.37c-7.78,7.24-8.76,18-8.75,26.58a172.07,172.07,0,0,0,3.76,35.48c.68,3.2,1.45,6.38,2.2,9.46.81,3.32,1.64,6.74,2.33,10.08a141,141,0,0,1,2.59,19.24,6.86,6.86,0,0,0,6.86,6.37l.45,0a6.82,6.82,0,0,0,6.42-7.24,155.5,155.5,0,0,0-2.84-21.07c-.74-3.57-1.6-7.12-2.43-10.55-.73-3-1.48-6.07-2.12-9.08a158.3,158.3,0,0,1-3.46-32.69c0-5.82.48-13,4.42-16.64.85-.79,2.56-.76,3.26-.7,4.26.31,12.66,6.9,23.48,24.42,8.46,13.71,17.38,32.57,23.85,50.46,1.7,4.72,5.14,11.17,11.8,15.09a29.1,29.1,0,0,0,8.76,3.23c4.18.9,9.61,1.55,14.48-1.41,6.81-4.15,10.94-9.77,12.27-16.71C395.75,370,383.25,353.49,377.25,345.58Z" transform="translate(-23.5 -23.5)"/><path class="cls-3" d="M294.5,422.36a6.86,6.86,0,0,0-7.64,5.95c-1.46,12.06-4.33,21.54-8.78,29-5.25,8.78-13,15-21.37,16.93-8.67,2.07-18.27-1-22.81-7.36a35.51,35.51,0,0,1-4.38-9.54A70,70,0,0,1,226,442.65C224.06,426,231.67,409,238.38,394c.67-1.51,1.43-3.18,2.25-5,4.89-10.77,12.28-27.06,16.56-41.26,2.25-7.5,9.12-30.31-5.39-36.91-10.48-4.76-21.05,3.35-25.57,6.82-9.47,7.27-16.29,16.72-22.89,25.85-4.72,6.54-9.18,12.71-14.48,18-9.32,9.39-22,16.76-37.56,21.92-4.79,1.58-11.11,3.38-17.29,3.34-5.65,0-10.63-1.67-14-4.6-2.08-1.78-3.33-4-3.28-5.85.05-1.41.82-3.21,2.37-5.5,5.31-7.81,14.2-14.44,26.44-19.71,6.41-2.76,13-4.92,20-7.21,4.91-1.61,10-3.28,15-5.17,12.84-4.87,23.17-10.53,31.58-17.33,10.49-8.49,18-18.9,21.84-30.11,3.16-9.33,2.47-17.76-1.95-23.74a22.31,22.31,0,0,0-8.52-6.77c-10.51-5-23.89-3.68-37.68,3.7-4,2.16-7.83,4.6-11.5,7-5.46,3.51-10.62,6.83-16.17,9a45.05,45.05,0,0,1-20.36,3c-4.45-.39-12.68-1.91-17.83-7.7-3.83-4.33-4.77-10.84-2.13-14.82,1.59-2.39,4.62-4.43,9-6.06,8.25-3.06,18.18-4,30.38-2.84,3,.28,5.91.65,9,1,11.37,1.44,23.13,2.93,34.88-.43l.8-.22c5.81-1.64,15.54-4.39,17.21-13.64,1.33-7.31-1.22-15.2-7-21.64-4.54-5.07-10.31-8.53-15.82-11.63-5.18-2.91-10.5-5.76-15.64-8.52-20.45-11-41.59-22.32-56.94-39.07-3.25-3.55-5.77-8-8.44-15-4.91-12.81,5-22.06,9.23-24,3-1.37,7.57-.33,11.14,2.53,3.95,3.18,6.83,8,9.92,13.62.79,1.42,1.57,2.85,2.36,4.28,2.83,5.13,5.76,10.44,8.83,15.6a6.92,6.92,0,0,0,9.42,2.41,6.77,6.77,0,0,0,2.43-9.32c-3-5-5.83-10.18-8.6-15.21l-2.39-4.32c-2.92-5.28-6.93-12.51-13.3-17.63-7.73-6.22-17.79-7.91-25.61-4.31-11,5.06-23.78,21.64-16.3,41.17,2.21,5.75,5.46,13.13,11.13,19.32,16.92,18.46,39.11,30.37,60.56,41.88,5.09,2.73,10.35,5.56,15.4,8.4,4.7,2.64,9.18,5.3,12.33,8.82,2.85,3.18,4.28,7.06,3.75,10.13-.84,1.14-5.47,2.44-7.46,3l-.83.23c-9,2.58-18.88,1.33-29.33,0-3.09-.39-6.29-.8-9.47-1.1-14.32-1.34-26.26-.15-36.51,3.66-7.27,2.7-12.4,6.41-15.67,11.33-6.06,9.14-4.68,22.3,3.3,31.29,6.16,6.94,15.74,11.3,27,12.28a58.82,58.82,0,0,0,26.68-3.92c6.8-2.7,12.77-6.54,18.55-10.26,3.6-2.32,7-4.51,10.54-6.41,5.68-3,16.51-7.52,25.19-3.39a8.91,8.91,0,0,1,3.37,2.53c2.39,3.22.8,9,0,11.36-3,8.77-9,17-17.51,23.89-7.24,5.86-16.33,10.82-27.79,15.16-4.7,1.77-9.63,3.39-14.4,5-7,2.28-14.16,4.65-21.14,7.65-14.69,6.32-25.58,14.6-32.37,24.61-2,2.86-4.55,7.29-4.71,12.69-.18,6,2.74,12,8,16.53,5.86,5.06,14,7.88,23,7.95h.31c8.12,0,15.71-2.16,21.43-4.05,17.68-5.84,32.16-14.35,43-25.28,6.06-6.1,11-13,15.86-19.67,6.3-8.72,12.25-17,20.13-23,7-5.39,10.07-5.81,11.39-5.21,0,0,3.24,3.08-2.05,20.64-4,13.33-10.89,28.5-15.92,39.57-.83,1.83-1.6,3.52-2.28,5-7.05,15.75-15.82,35.35-13.53,55.71a85.3,85.3,0,0,0,4.2,17.48,48.71,48.71,0,0,0,6.22,13.14c6.21,8.63,17.2,13.71,28.55,13.71a37.68,37.68,0,0,0,8.68-1c11.93-2.83,22.87-11.31,30-23.25,5.45-9.12,8.91-20.34,10.6-34.31A6.82,6.82,0,0,0,294.5,422.36Z" transform="translate(-23.5 -23.5)"/><path class="cls-3" d="M269.85,82.87c.51,0,1,0,1.54,0a23.36,23.36,0,0,0,21-13.06c9.14-19.68,5.57-31.23,1-37.45-4.85-6.54-12.93-9.79-21.6-8.7a25.53,25.53,0,0,0-20.58,15.61h0c-2.55,6.32-7.72,22.23-.65,33.4C253.2,76.93,258.72,82.1,269.85,82.87ZM264,44.37h0a11.85,11.85,0,0,1,9.54-7.15,12.87,12.87,0,0,1,1.51-.09,8.85,8.85,0,0,1,7.27,3.34c3.37,4.56,2.51,13.2-2.37,23.7a9.78,9.78,0,0,1-9.1,5.11c-6.49-.45-8.09-3-8.61-3.8C259.68,61.52,260.37,53.24,264,44.37Z" transform="translate(-23.5 -23.5)"/><path class="cls-3" d="M71.27,246.38c-12-4.24-26.08-2.47-35.79,4.5a28.22,28.22,0,0,0-12,24.32c.23,8.87,5.2,17.81,13,23.31a34.09,34.09,0,0,0,20.1,6.12,50.41,50.41,0,0,0,15.12-2.46c11.14-3.47,17.77-13.95,18.2-28.77a29.25,29.25,0,0,0-1.86-12.2C85.34,254.58,79.23,249.18,71.27,246.38ZM76.16,273C76,278.1,74.7,287,67.59,289.17c-9.38,2.92-17.37,2.32-23.1-1.74a16.7,16.7,0,0,1-7.23-12.58,14.62,14.62,0,0,1,6.29-12.94c6-4.28,15.46-5.39,23.11-2.7,4.19,1.48,7.42,4.13,8.64,7.1A16.69,16.69,0,0,1,76.16,273Z" transform="translate(-23.5 -23.5)"/><path class="cls-3" d="M419.8,405.8c-7.24-1.69-14.34-.67-19.48,2.81-6.37,4.3-10.4,11.85-11.37,21.24a44,44,0,0,0,4.8,24.63,33.71,33.71,0,0,0,28.74,17.63h1c9.73,0,18.17-4.32,22.7-11.68,4.12-6.71,6.82-18.64-3.71-37.41A35.42,35.42,0,0,0,419.8,405.8Zm14.62,47.55c-2.08,3.37-6.37,5.29-11.52,5.14a20,20,0,0,1-17-10.38c-5.31-9.93-4.23-23.92,2.16-28.25a8.77,8.77,0,0,1,4.9-1.24,16,16,0,0,1,3.66.44,22,22,0,0,1,13.81,10.59C436.07,439.67,437.51,448.31,434.42,453.35Z" transform="translate(-23.5 -23.5)"/></svg>