<svg id="Слой_1" data-name="Слой 1" xmlns="http://www.w3.org/2000/svg" viewBox="0 0 20 20"><title>icon-dark</title><path d="M19.7,11.28a1.2,1.2,0,0,1-.1.37,1,1,0,0,1-.8.53,2.05,2.05,0,0,1-1-.19c-.31-.14-.59-.31-.89-.46-.71-.33-2.6-1.14-3.4-.47a.72.72,0,0,0-.22.44,2.14,2.14,0,0,0,.54,1.29c.26.4.81.82,1.1,1.2s1.17,1.49.25,2a.58.58,0,0,1-.41,0,.81.81,0,0,1-.67-.6c-.52-1.43-1.52-3.35-2.29-3.41a.46.46,0,0,0-.36.11,1.22,1.22,0,0,0-.29.93,7.17,7.17,0,0,0,.16,1.46c.06.28.14.56.19.85a.85.85,0,0,1,0,.17,6.52,6.52,0,0,1,.05,1.87,3.38,3.38,0,0,1-.42,1.36,1.77,1.77,0,0,1-1.1.87,1.25,1.25,0,0,1-1.29-.43,1.83,1.83,0,0,1-.23-.49,3.48,3.48,0,0,1-.17-.69v0A4.41,4.41,0,0,1,9,15.81c.38-.85,1.37-2.89.72-3.19-.26-.12-.56.09-.79.26a18.9,18.9,0,0,0-1.58,1.86,4.39,4.39,0,0,1-1.73,1,2.66,2.66,0,0,1-.84.16,1.33,1.33,0,0,1-.8-.27.68.68,0,0,1-.24-.49.82.82,0,0,1,.15-.39,2.87,2.87,0,0,1,1.27-.95c.49-.21,1-.35,1.51-.54a4.43,4.43,0,0,0,1.28-.7,2.59,2.59,0,0,0,.85-1.16.85.85,0,0,0,0-.75.73.73,0,0,0-.26-.2,1.55,1.55,0,0,0-1.35.15,13.65,13.65,0,0,1-1.22.7,2.19,2.19,0,0,1-1,.15,1.45,1.45,0,0,1-1-.43.83.83,0,0,1-.11-1,1,1,0,0,1,.53-.37,3.14,3.14,0,0,1,1.43-.14,4.85,4.85,0,0,0,1.78,0c.23-.06.53-.13.57-.36a.88.88,0,0,0-.23-.69,2.71,2.71,0,0,0-.61-.44A12.34,12.34,0,0,1,4.1,6a2.09,2.09,0,0,1-.42-.74,1.12,1.12,0,0,1,.55-1.4A.77.77,0,0,1,5,4a2.1,2.1,0,0,1,.5.67,8.73,8.73,0,0,0,1.31,2A2.63,2.63,0,0,0,9,7.5a1.32,1.32,0,0,0,1-.71A2.59,2.59,0,0,0,10,5.31a3.84,3.84,0,0,1,0-1.07,1.53,1.53,0,0,1,.23-.67.7.7,0,0,1,.62-.3c.39.06.58.53.54.92S11,4.93,11,5.32c-.05,2,1.27,1.49,1.81.64a7.55,7.55,0,0,0,.61-1,10.7,10.7,0,0,1,1.75-2.75,2,2,0,0,1,.61-.47.83.83,0,0,1,.75,0,.81.81,0,0,1,.36.75,1.5,1.5,0,0,1-.31.8,3.78,3.78,0,0,1-.67.77c-3.1,2.68-2.31,3.34-2.11,3.44a1.14,1.14,0,0,0,.66,0,4.09,4.09,0,0,0,1.32-.43,10.78,10.78,0,0,1,1-.54h0l.06,0a1.26,1.26,0,0,1,1.18.1.63.63,0,0,1,.24.38.67.67,0,0,1-.24.58A1.7,1.7,0,0,1,17,8c-.25,0-.54.07-.82.13a6,6,0,0,0-1,.3c-.62.26-1,.66-.74,1.24.15.31.64.26,1,.29h.25c.89,0,1.78,0,2.67,0a1.52,1.52,0,0,1,1.19.41A1.25,1.25,0,0,1,19.7,11.28Z" fill="#ff6c37"/><path d="M10.08.79c-.19.47-.4,1.4.54,1.47a.7.7,0,0,0,.68-.39C12.11.13,10.42-.08,10.08.79Z" fill="#ff6c37"/><path d="M.3,10.82c0,.51.57,1.23,1.69.88.51-.16.57-.74.58-1a1.13,1.13,0,0,0-.06-.41A.86.86,0,0,0,2,9.86C1.26,9.61.28,9.94.3,10.82Z" fill="#ff6c37"/><path d="M16.19,18.4c.57,1.06,2.59.72,1.58-1.08a1.08,1.08,0,0,0-1.39-.52A1.31,1.31,0,0,0,16.19,18.4Z" fill="#ff6c37"/><path d="M11.63,17.44a3.38,3.38,0,0,1-.42,1.36,1.77,1.77,0,0,1-1.1.87,1.25,1.25,0,0,1-1.29-.43,1.83,1.83,0,0,1-.23-.49,3.48,3.48,0,0,1-.17-.69v0a1.52,1.52,0,0,0,1.58.42,3.23,3.23,0,0,0,1.58-2.87A6.52,6.52,0,0,1,11.63,17.44Z" fill="#ff916a"/><path d="M15.71,2.46a1.44,1.44,0,0,1-.31.8c-2.75,3.41-1.82,4.2-1.67,4.16-.25-.2-.61-1,2.18-3.39a3.78,3.78,0,0,0,.67-.77,1.5,1.5,0,0,0,.31-.8.81.81,0,0,0-.36-.75.83.83,0,0,0-.75,0,1.35,1.35,0,0,0-.26.15A.85.85,0,0,1,15.71,2.46Z" fill="#ff916a"/><path d="M18.05,7.56A1.7,1.7,0,0,1,17,8c-.25,0-.54.07-.82.13a7.69,7.69,0,0,0,.8-.51c.57-.36,0-.93-.09-1l-.09-.06h0l.06,0a1.26,1.26,0,0,1,1.18.1.63.63,0,0,1,.24.38A.67.67,0,0,1,18.05,7.56Z" fill="#ff916a"/><path d="M13.86,12.79a2.14,2.14,0,0,1-.54-1.29.72.72,0,0,1,.22-.44,1.08,1.08,0,0,1,.35-.19c-1.65.25-.36,2.49-.2,2.71s1,1.6.62,2.2a.86.86,0,0,0,.2.18,1,1,0,0,0,.29.1.58.58,0,0,0,.41,0c.92-.56,0-1.69-.25-2S14.12,13.19,13.86,12.79Z" fill="#ff916a"/><path d="M19.51,10.37A1.52,1.52,0,0,0,18.32,10c-.33,0-.66,0-1,0a1.32,1.32,0,0,1,1,.4,1.24,1.24,0,0,1,.18.91,1.18,1.18,0,0,1-.09.37.9.9,0,0,1-.41.41,1.77,1.77,0,0,0,.79.12,1,1,0,0,0,.8-.53,1.2,1.2,0,0,0,.1-.37A1.25,1.25,0,0,0,19.51,10.37Z" fill="#ff916a"/><path d="M8.73,13a.43.43,0,0,0-.21-.41c-.26-.12-.57.08-.79.26a17.63,17.63,0,0,0-1.58,1.86,4.43,4.43,0,0,1-1.74,1l-.18.05a1.62,1.62,0,0,0,.53.11,2.66,2.66,0,0,0,.84-.16,4.39,4.39,0,0,0,1.73-1C7.85,14.22,8.19,13.52,8.73,13Z" fill="#ff916a"/><path d="M4.33,4.66A8.3,8.3,0,0,0,8.1,7.42a3,3,0,0,1-1.27-.78,8.73,8.73,0,0,1-1.31-2A2.1,2.1,0,0,0,5,4a.77.77,0,0,0-.79-.15,1.12,1.12,0,0,0-.31.23A6.19,6.19,0,0,1,4.33,4.66Z" fill="#ff916a"/><path d="M19.74,10.19a1.78,1.78,0,0,0-1.42-.52c-.41,0-.83,0-1.23,0a13.29,13.29,0,0,1-1.67,0H15.2c-.19,0-.48,0-.53-.1a.41.41,0,0,1,0-.41c.2-.38,1.09-.69,2.36-.85a2,2,0,0,0,1.25-.53,1,1,0,0,0,.31-.84.88.88,0,0,0-.34-.56,1.56,1.56,0,0,0-1.47-.14,5.16,5.16,0,0,0-.78.39l-.35.2a4,4,0,0,1-1.22.41.89.89,0,0,1-.49,0s-.06,0-.07-.12.06-.94,2.24-2.83a4,4,0,0,0,.73-.83,1.91,1.91,0,0,0,.36-.95,1.08,1.08,0,0,0-.52-1,1.12,1.12,0,0,0-1,0A2.34,2.34,0,0,0,15,2a11,11,0,0,0-1.8,2.83,7.46,7.46,0,0,1-.52.9l-.07.1c-.25.39-.68.66-.93.58s-.35-.46-.34-1.07a1.81,1.81,0,0,1,.14-.5,2.32,2.32,0,0,0,.18-.6A1.08,1.08,0,0,0,10.82,3a1,1,0,0,0-.9.42,1.75,1.75,0,0,0-.28.8,4.11,4.11,0,0,0,0,1.16l.06.31a1.72,1.72,0,0,1,0,1,1,1,0,0,1-.81.54,2.28,2.28,0,0,1-1.89-.78.47.47,0,0,1-.1-.1.3.3,0,0,0-.42,0,.29.29,0,0,0,0,.41,1.31,1.31,0,0,0,.11.12,3,3,0,0,0,2.09,1l.31,0A1.63,1.63,0,0,0,10.3,6.9a2.19,2.19,0,0,0,0-1.34c0-.11,0-.2-.05-.3a2.94,2.94,0,0,1,0-1,1.22,1.22,0,0,1,.17-.54.42.42,0,0,1,.34-.18c.19,0,.31.34.28.59a1.3,1.3,0,0,1-.14.45,2.24,2.24,0,0,0-.18.71c0,.64.11,1.45.76,1.64a1.57,1.57,0,0,0,1.6-.83L13.12,6a8.5,8.5,0,0,0,.57-1,10.3,10.3,0,0,1,1.7-2.68A1.51,1.51,0,0,1,15.9,2a.54.54,0,0,1,.48,0,.53.53,0,0,1,.22.48,1.39,1.39,0,0,1-.26.66,3.78,3.78,0,0,1-.63.71C14,5.32,13.17,6.42,13.27,7.16a.75.75,0,0,0,.4.57,1.38,1.38,0,0,0,.84.07,4.41,4.41,0,0,0,1.41-.46c.13-.07.26-.14.38-.22A4.23,4.23,0,0,1,17,6.78a1,1,0,0,1,.9,0A.36.36,0,0,1,18,7a.41.41,0,0,1-.16.34,1.44,1.44,0,0,1-.89.36c-1.55.19-2.5.58-2.81,1.15a1,1,0,0,0,0,.94c.2.41.69.43,1,.44h.19c.59,0,1.17,0,1.74,0,.39,0,.8,0,1.2,0a1.3,1.3,0,0,1,1,.3,1,1,0,0,1,.12.7.9.9,0,0,1-.06.28.73.73,0,0,1-.57.35,1.53,1.53,0,0,1-.82-.16l-.37-.18a.3.3,0,0,0-.28.52l.41.2a2.5,2.5,0,0,0,.94.22h.19a1.29,1.29,0,0,0,1-.7,1.26,1.26,0,0,0,.12-.46A1.46,1.46,0,0,0,19.74,10.19Z" fill="#1c272b"/><path d="M15.22,13.85l0,0a4.71,4.71,0,0,0-.53-.57,3.82,3.82,0,0,1-.56-.62l-.1-.15a1.54,1.54,0,0,1-.39-1,.35.35,0,0,1,.12-.25c.38-.32,1.29-.23,2.5.27a.29.29,0,0,0,.38-.16.3.3,0,0,0-.16-.39c-1.48-.6-2.53-.66-3.11-.16a.94.94,0,0,0-.32.63,2,2,0,0,0,.49,1.34l.09.14a4.61,4.61,0,0,0,.64.71,5.23,5.23,0,0,1,.47.51l0,0c.17.23.64.84.56,1.26a.5.5,0,0,1-.26.33s0,0-.18,0l-.21-.07a.74.74,0,0,1-.25-.35,13,13,0,0,0-1.08-2.28c-.53-.86-1-1.29-1.47-1.32a.79.79,0,0,0-.59.18,1.54,1.54,0,0,0-.37,1.15,7.07,7.07,0,0,0,.16,1.52l.09.41c0,.14.07.29.1.43a5.72,5.72,0,0,1,.12.83.29.29,0,0,0,.29.27h0a.3.3,0,0,0,.28-.31,6.73,6.73,0,0,0-.13-.9c0-.16-.07-.31-.1-.46l-.09-.39a6.59,6.59,0,0,1-.15-1.4,1,1,0,0,1,.19-.72.25.25,0,0,1,.14,0c.18,0,.54.3,1,1.05a12.88,12.88,0,0,1,1,2.17,1.24,1.24,0,0,0,.5.65,1.31,1.31,0,0,0,.38.14.81.81,0,0,0,.62-.06,1.06,1.06,0,0,0,.53-.72A2.43,2.43,0,0,0,15.22,13.85Z" fill="#1c272b"/><path d="M11.66,17.15a.3.3,0,0,0-.33.26A3.13,3.13,0,0,1,11,18.66a1.53,1.53,0,0,1-.92.72,1,1,0,0,1-1-.31,1.57,1.57,0,0,1-.19-.41A2.8,2.8,0,0,1,8.72,18a4.13,4.13,0,0,1,.53-2.1l.1-.21a17.35,17.35,0,0,0,.71-1.78c.1-.32.39-1.3-.23-1.58-.45-.21-.91.14-1.1.29a5.19,5.19,0,0,0-1,1.11,6.07,6.07,0,0,1-.62.78,4,4,0,0,1-1.62.94,2.32,2.32,0,0,1-.74.14.94.94,0,0,1-.6-.19A.34.34,0,0,1,4,15.17a.43.43,0,0,1,.1-.23,2.55,2.55,0,0,1,1.14-.85c.27-.12.56-.21.86-.31l.64-.22a5,5,0,0,0,1.36-.75,2.91,2.91,0,0,0,.94-1.29,1.1,1.1,0,0,0-.09-1,1,1,0,0,0-.36-.3A1.84,1.84,0,0,0,7,10.36l-.5.3a3.67,3.67,0,0,1-.69.39,1.89,1.89,0,0,1-.88.13,1.22,1.22,0,0,1-.77-.33.57.57,0,0,1-.09-.64A.8.8,0,0,1,4.45,10a3,3,0,0,1,1.31-.12l.38,0a3.66,3.66,0,0,0,1.51,0h0c.25-.08.67-.19.74-.59a1.09,1.09,0,0,0-.3-.93,2.49,2.49,0,0,0-.68-.5l-.67-.37A9,9,0,0,1,4.32,5.78,2,2,0,0,1,4,5.14a.86.86,0,0,1,.4-1,.53.53,0,0,1,.48.11,2.14,2.14,0,0,1,.43.59,1.62,1.62,0,0,0,.1.18l.38.67a.29.29,0,0,0,.51-.29c-.13-.22-.25-.44-.37-.66a1.62,1.62,0,0,1-.1-.18,2.44,2.44,0,0,0-.58-.76,1.08,1.08,0,0,0-1.1-.19,1.42,1.42,0,0,0-.7,1.77,2.65,2.65,0,0,0,.48.83A9.5,9.5,0,0,0,6.48,8l.67.36a2.11,2.11,0,0,1,.53.38.56.56,0,0,1,.16.43.93.93,0,0,1-.32.13h0a3.14,3.14,0,0,1-1.26,0l-.41,0a3.55,3.55,0,0,0-1.57.15,1.35,1.35,0,0,0-.67.49,1.14,1.14,0,0,0,.14,1.35,1.77,1.77,0,0,0,1.16.52A2.5,2.5,0,0,0,6,11.6a5.16,5.16,0,0,0,.8-.45l.45-.27a1.28,1.28,0,0,1,1.08-.15.37.37,0,0,1,.15.11c.1.14,0,.39,0,.49a2.31,2.31,0,0,1-.76,1A4.41,4.41,0,0,1,6.55,13c-.2.08-.42.15-.62.21s-.61.2-.91.33a3.1,3.1,0,0,0-1.39,1.06.92.92,0,0,0-.2.55.91.91,0,0,0,.34.71,1.54,1.54,0,0,0,1,.34h0A2.68,2.68,0,0,0,5.69,16,4.6,4.6,0,0,0,7.54,15a6,6,0,0,0,.68-.85,4.94,4.94,0,0,1,.87-1c.3-.23.43-.25.49-.22s.14.13-.09.89a15.84,15.84,0,0,1-.68,1.7l-.1.21a4.77,4.77,0,0,0-.58,2.4,3.3,3.3,0,0,0,.18.75,2,2,0,0,0,.27.57A1.49,1.49,0,0,0,9.8,20a1.65,1.65,0,0,0,.38-.05,2.1,2.1,0,0,0,1.29-1,3.69,3.69,0,0,0,.45-1.47A.29.29,0,0,0,11.66,17.15Z" fill="#1c272b"/><path d="M10.6,2.55h.07a1,1,0,0,0,.9-.56c.4-.85.24-1.34,0-1.61A1,1,0,0,0,10.69,0,1.09,1.09,0,0,0,9.8.68h0a1.71,1.71,0,0,0,0,1.43A1,1,0,0,0,10.6,2.55ZM10.35.9h0a.51.51,0,0,1,.41-.31h.06a.39.39,0,0,1,.32.15c.14.19.11.56-.1,1a.45.45,0,0,1-.4.22c-.27,0-.34-.13-.37-.17A1.18,1.18,0,0,1,10.35.9Z" fill="#1c272b"/><path d="M2.06,9.58a1.74,1.74,0,0,0-1.54.2,1.2,1.2,0,0,0-.51,1,1.31,1.31,0,0,0,.56,1,1.49,1.49,0,0,0,.86.26A2.06,2.06,0,0,0,2.08,12a1.2,1.2,0,0,0,.78-1.23,1.23,1.23,0,0,0-.08-.53A1.18,1.18,0,0,0,2.06,9.58Zm.21,1.15c0,.22-.06.6-.37.69a1.11,1.11,0,0,1-1-.07.72.72,0,0,1-.31-.54.61.61,0,0,1,.27-.56,1.14,1.14,0,0,1,1-.11.63.63,0,0,1,.38.3A.78.78,0,0,1,2.27,10.73Z" fill="#1c272b"/><path d="M17.05,16.44a1.09,1.09,0,0,0-.84.12,1.22,1.22,0,0,0-.48.91,1.84,1.84,0,0,0,.2,1.06,1.43,1.43,0,0,0,1.24.76h0a1.12,1.12,0,0,0,1-.5,1.78,1.78,0,0,0-1.14-2.35Zm.63,2a.56.56,0,0,1-.49.22.85.85,0,0,1-.73-.45c-.23-.43-.19-1,.09-1.21a.33.33,0,0,1,.21-.06l.16,0a1,1,0,0,1,.59.46A1.1,1.1,0,0,1,17.68,18.49Z" fill="#1c272b"/></svg>