<svg id="Слой_1" data-name="Слой 1" xmlns="http://www.w3.org/2000/svg" viewBox="0 0 87.83 73.17"><title>apple-touch-iconМонтажная область 1076</title><path d="M82.21,43.68a16.93,16.93,0,0,0,.8-2c2.63-7.77-1.35-17.07-9.73-19.32C72.37,11,64.37,3.22,55.33,1.88,45,.36,35.52,6.93,32.37,17.37a12.54,12.54,0,0,0-11,.86,13.63,13.63,0,0,0-4.33,3.23A15,15,0,0,0,13.4,29a11.91,11.91,0,0,0-2.18.49,10.65,10.65,0,0,0-7.29,8.92,13.28,13.28,0,0,0,.94,6.72,10.37,10.37,0,0,0,11,6.31,1.08,1.08,0,0,1,.75.23,21.52,21.52,0,0,0,8.88,17c8.32,5.78,19,4,25.78-3.92a11.88,11.88,0,0,0,10.39,3.88,12.81,12.81,0,0,0,9.42-6.35,21.65,21.65,0,0,0,3.09.8c4,.45,7.29-1.18,9.73-4.8a2.33,2.33,0,0,1,.31-.32l1-2.4a32.09,32.09,0,0,0,.44-3.63A10.9,10.9,0,0,0,82.21,43.68Z" fill="#ff6c37" opacity="0.9"/><path d="M41.18,49.35h3.54a3.73,3.73,0,0,0,.79-7.4,3.87,3.87,0,0,0,0-.48,4,4,0,0,0-7.11-2.33,4.38,4.38,0,0,0-8.64-.48,4.21,4.21,0,0,0,0,1.66,2.77,2.77,0,0,0-2-.85A2.71,2.71,0,0,0,25.08,42a3.75,3.75,0,1,0-.82,7.39h8.81m1.64,0h.36" fill="#fff"/><path d="M44.72,49.85H41.18a.5.5,0,0,1,0-1h3.54a3.23,3.23,0,0,0,.69-6.41.5.5,0,0,1-.4-.55,3,3,0,0,0,0-.42,3.42,3.42,0,0,0-3.46-3.37,3.45,3.45,0,0,0-2.76,1.35.5.5,0,0,1-.89-.27,3.69,3.69,0,0,0-1.37-2.6,3.91,3.91,0,0,0-3-.86,3.76,3.76,0,0,0-3.3,4.5.5.5,0,0,1-.85.45A2.24,2.24,0,0,0,27.8,40a2.21,2.21,0,0,0-2.22,2,.49.49,0,0,1-.2.37.48.48,0,0,1-.4.09,3.23,3.23,0,0,0-1.85.12,3.32,3.32,0,0,0-2.19,2.91,3.15,3.15,0,0,0,.89,2.34,3.31,3.31,0,0,0,2.42,1h8.81a.5.5,0,0,1,.5.5.5.5,0,0,1-.5.5H24.25a4.4,4.4,0,0,1-3.14-1.33,4.17,4.17,0,0,1-1.17-3.08,4.32,4.32,0,0,1,2.84-3.81,4.37,4.37,0,0,1,1.89-.24A3.22,3.22,0,0,1,27.8,39a3.29,3.29,0,0,1,1.42.33,3.63,3.63,0,0,1,.08-.73,4.83,4.83,0,0,1,4.17-3.83A4.91,4.91,0,0,1,37.2,35.8a4.78,4.78,0,0,1,1.54,2.3A4.48,4.48,0,0,1,46,41.47v.1a4.23,4.23,0,0,1-1.32,8.28Zm-9.66,0H34.7a.5.5,0,0,1,0-1h.36a.5.5,0,0,1,0,1Z" fill="#472b29"/><path d="M43,44.05h0a.25.25,0,0,1-.19-.3,3.06,3.06,0,0,1,.17-.48,2.79,2.79,0,0,1,3.72-1,.24.24,0,0,1,.12.33.25.25,0,0,1-.33.12,2.29,2.29,0,0,0-3.06.77,1.63,1.63,0,0,0-.13.37A.26.26,0,0,1,43,44.05Zm-5.15,5.8H36.75a.5.5,0,0,1,0-1h1.11a.5.5,0,0,1,0,1Z" fill="#472b29"/><path d="M63.86,43.09H75.13A4.88,4.88,0,0,0,80,38a5,5,0,0,0-3.22-4.39,4.77,4.77,0,0,0-2.72-.19,3.49,3.49,0,0,0-6-2.14,5.51,5.51,0,0,0,0-2.18A5.58,5.58,0,0,0,57,29.74a5.06,5.06,0,0,0-9.1,3.05c0,.21,0,.42,0,.63a4.89,4.89,0,0,0,1,9.67H60.7" fill="#fff"/><path d="M75.13,43.59H63.86a.5.5,0,0,1-.5-.5.5.5,0,0,1,.5-.5H75.13A4.38,4.38,0,0,0,79.51,38a4.47,4.47,0,0,0-2.9-3.94,4.2,4.2,0,0,0-2.43-.17.49.49,0,0,1-.41-.08.51.51,0,0,1-.2-.37,3,3,0,0,0-5.17-1.84.5.5,0,0,1-.6.11.52.52,0,0,1-.26-.55,5.06,5.06,0,0,0-4.34-6.06,5,5,0,0,0-3.86,1.11,5.12,5.12,0,0,0-1.85,3.55.5.5,0,0,1-.36.44.5.5,0,0,1-.53-.18,4.56,4.56,0,0,0-8.21,2.74,5.27,5.27,0,0,0,0,.57.5.5,0,0,1-.39.55,4.39,4.39,0,0,0,.9,8.68H60.7a.5.5,0,0,1,.5.5.5.5,0,0,1-.5.5H48.94A5.39,5.39,0,0,1,47.4,33a2,2,0,0,1,0-.25,5.57,5.57,0,0,1,9.28-4.14A6.09,6.09,0,0,1,68.54,29a6.57,6.57,0,0,1,.1,1.16,4,4,0,0,1,5.85,2.68,5.2,5.2,0,0,1,2.47.29A5.48,5.48,0,0,1,80.51,38a5.38,5.38,0,0,1-5.38,5.6Z" fill="#472b29"/><path d="M63.54,32.33A3.16,3.16,0,0,1,67,35.11a2.48,2.48,0,0,1,0,.61,2.12,2.12,0,0,1,1.45-.7,2,2,0,0,1,2.16,1.62,3.09,3.09,0,0,1,.62-.1,2.76,2.76,0,0,1,3,2.44" fill="#fdfcef"/><path d="M74.26,39.23A.25.25,0,0,1,74,39a2.53,2.53,0,0,0-2.77-2.21,3.78,3.78,0,0,0-.57.1.26.26,0,0,1-.21,0,.27.27,0,0,1-.11-.18,1.74,1.74,0,0,0-1.89-1.4,1.89,1.89,0,0,0-1.29.62.26.26,0,0,1-.29.06.25.25,0,0,1-.14-.27,2.51,2.51,0,0,0,0-.55,2.93,2.93,0,0,0-3.21-2.56h0a.25.25,0,0,1,0-.49,3.41,3.41,0,0,1,3.74,3v0a2.46,2.46,0,0,1,1.17-.38,2.26,2.26,0,0,1,2.36,1.57,2,2,0,0,1,.41-.05A3,3,0,0,1,74.51,39a.24.24,0,0,1-.23.26Z" fill="#472b29"/><path d="M47,34a3.27,3.27,0,0,1,4.39,1.27,2.59,2.59,0,0,1,.2.57" fill="#fdfcef"/><path d="M51.55,36.08a.24.24,0,0,1-.24-.19,2.92,2.92,0,0,0-.19-.52,3,3,0,0,0-4-1.15.25.25,0,1,1-.22-.45,3.51,3.51,0,0,1,4.72,1.38,2.77,2.77,0,0,1,.22.63.25.25,0,0,1-.18.3Z" fill="#472b29"/><path d="M79.36,56.76h-10a.5.5,0,0,1,0-1h10a.5.5,0,0,1,0,1Zm2.88,0H80.8a.5.5,0,0,1,0-1h1.44a.5.5,0,0,1,0,1Zm4.06,0H83.75a.5.5,0,0,1,0-1H86.3a.5.5,0,0,1,0,1Zm0,1.86H76.68a.5.5,0,0,1-.5-.5.5.5,0,0,1,.5-.5H86.3a.51.51,0,0,1,.5.5A.5.5,0,0,1,86.3,58.62ZM75,58.62h-.58a.5.5,0,0,1-.5-.5.5.5,0,0,1,.5-.5H75a.51.51,0,0,1,.5.5A.5.5,0,0,1,75,58.62Zm-2.38,0H71.12a.5.5,0,0,1-.5-.5.5.5,0,0,1,.5-.5h1.45a.5.5,0,0,1,.5.5A.5.5,0,0,1,72.57,58.62Zm9.14-3.73h-5a.5.5,0,0,1-.5-.5.5.5,0,0,1,.5-.5h5a.51.51,0,0,1,.5.5A.5.5,0,0,1,81.71,54.89Zm0-1.86H80.45a.5.5,0,0,1,0-1h1.26a.5.5,0,1,1,0,1Zm-3.27,7.46H76.68a.5.5,0,0,1-.5-.5.5.5,0,0,1,.5-.5h1.76a.5.5,0,0,1,.5.5A.51.51,0,0,1,78.44,60.49ZM13.36,39.21h-10a.5.5,0,1,1,0-1h10a.5.5,0,0,1,0,1Zm2.88,0H14.8a.5.5,0,0,1,0-1h1.44a.5.5,0,1,1,0,1Zm4.05,0H17.75a.5.5,0,0,1,0-1h2.54a.5.5,0,0,1,0,1Zm-2-3.73H8.65a.5.5,0,1,1,0-1h9.62a.5.5,0,0,1,.5.5A.5.5,0,0,1,18.27,35.48Zm-11.35,0H6.34a.5.5,0,1,1,0-1h.58a.5.5,0,1,1,0,1Zm-2.38,0H3.09a.5.5,0,1,1,0-1H4.54a.5.5,0,0,1,0,1Zm11.17,1.87h-5a.5.5,0,0,1-.5-.5.5.5,0,0,1,.5-.5h5a.5.5,0,0,1,.5.5A.51.51,0,0,1,15.71,37.35Z" fill="#fff"/><path d="M15.71,35.48H14.45a.5.5,0,1,1,0-1h1.26a.5.5,0,0,1,0,1ZM9.22,37.35H7.46a.51.51,0,0,1-.5-.5.5.5,0,0,1,.5-.5H9.22a.5.5,0,0,1,.5.5A.5.5,0,0,1,9.22,37.35Z" fill="#fff"/><path d="M51.86,18A13.26,13.26,0,1,0,56.33,36.2,13.27,13.27,0,0,0,51.86,18Zm-8.14,7.9-4.3.09a13.38,13.38,0,0,1-2.1,0h0c-4.06.16-2.38-3.39-1.29-3.39l7.48,0c1.14,0,1.16.59,1.32,1.05A1.61,1.61,0,0,1,43.72,25.89Z" fill="#e6e5e3"/><path d="M45,43.3a14,14,0,1,1,3.36-.41A14.3,14.3,0,0,1,45,43.3Zm0-26.53a12.56,12.56,0,1,0,6.49,1.82A12.57,12.57,0,0,0,45,16.77Z" fill="#472b29"/><path d="M55.7,35.72,46,42.38a1.89,1.89,0,0,0,0,1.49,1.35,1.35,0,0,0,1.78.43l2.15-1.48,4.62,6.75,1.65.14-.39,1.56,2,.54-.45,1.79,1.86.46L59,55.93l1.58.2-.2,1.54,5.46,2.26.33-4.84-10.85-16,1.59-1.08a1.43,1.43,0,0,0,.57-1.7A1.21,1.21,0,0,0,55.7,35.72Z" fill="#ce942b"/><path d="M65.82,60.43a.43.43,0,0,1-.19,0l-5.46-2.26a.5.5,0,0,1-.3-.53l.13-1-1.09-.14a.49.49,0,0,1-.33-.19.5.5,0,0,1-.1-.37l.2-1.43-1.42-.35a.5.5,0,0,1-.36-.6l.33-1.31-1.56-.41a.5.5,0,0,1-.36-.61l.25-1-1.07-.09a.53.53,0,0,1-.37-.22l-4.34-6.33L48,44.71a1.61,1.61,0,0,1-1.23.24,2,2,0,0,1-1.25-.8,2.26,2.26,0,0,1-.05-1.95.46.46,0,0,1,.18-.23l9.73-6.66h0a1.56,1.56,0,0,1,1.35-.2,1.82,1.82,0,0,1,1.15,1,1.93,1.93,0,0,1-.75,2.31L56,39.27,66.57,54.81a.48.48,0,0,1,.08.31L66.32,60a.5.5,0,0,1-.24.4A.53.53,0,0,1,65.82,60.43Zm-4.91-3.08,4.46,1.85.27-4L54.88,39.41a.51.51,0,0,1,.13-.69l1.6-1.09A1,1,0,0,0,57,36.54a.81.81,0,0,0-.52-.47.58.58,0,0,0-.5.06L46.39,42.7a1.21,1.21,0,0,0,0,.88A1,1,0,0,0,47,44a.64.64,0,0,0,.48-.09l2.16-1.48a.5.5,0,0,1,.38-.07.52.52,0,0,1,.32.2l4.48,6.56,1.42.12a.47.47,0,0,1,.36.2.52.52,0,0,1,.08.42l-.27,1.08,1.56.41a.51.51,0,0,1,.36.6L58,53.23l1.37.34a.49.49,0,0,1,.37.55l-.19,1.37,1.09.14a.49.49,0,0,1,.33.19.53.53,0,0,1,.1.37Z" fill="#472b29"/><path d="M55.42,36.51l-3.26,2.24L65.45,58.39l.22-3.16L54.78,39.12l1.45-1c.47-.32,1.22-1,.79-1.62S56.09,36,55.42,36.51Z" fill="#e2ad17"/><path d="M62.29,53.74a.25.25,0,0,1-.21-.1l-.77-1.13a.25.25,0,0,1,.07-.35.24.24,0,0,1,.34.07l.78,1.12a.26.26,0,0,1-.07.35A.23.23,0,0,1,62.29,53.74Zm-1.73-2.52a.26.26,0,0,1-.21-.11L59.2,49.42a.25.25,0,0,1,.06-.35.26.26,0,0,1,.35.07l1.15,1.69a.25.25,0,0,1-.2.39Zm-2.26-3.3a.26.26,0,0,1-.21-.11l-4.75-6.94a.25.25,0,1,1,.41-.29l4.75,6.94a.25.25,0,0,1-.06.35A.24.24,0,0,1,58.3,47.92ZM46.89,44.34a.13.13,0,0,1-.13-.13v-2.1a.13.13,0,0,1,.13-.12.12.12,0,0,1,.12.12v2.1A.12.12,0,0,1,46.89,44.34Zm.69-.41a.12.12,0,0,1-.12-.12v-2.1a.12.12,0,0,1,.12-.13.13.13,0,0,1,.13.13v2.1A.12.12,0,0,1,47.58,43.93Zm.7-.4a.13.13,0,0,1-.13-.13V41.3a.12.12,0,0,1,.13-.12.12.12,0,0,1,.12.12v2.1A.12.12,0,0,1,48.28,43.53Zm.69-.41a.12.12,0,0,1-.12-.13V40.9a.12.12,0,0,1,.12-.13.13.13,0,0,1,.13.13V43A.13.13,0,0,1,49,43.12Zm.64-1.06a.12.12,0,0,1-.13-.12V40.25a.13.13,0,0,1,.13-.13.12.12,0,0,1,.12.13v1.69A.12.12,0,0,1,49.61,42.06Zm.69-1a.12.12,0,0,1-.12-.13v-1a.12.12,0,0,1,.12-.12.12.12,0,0,1,.13.12v1A.13.13,0,0,1,50.3,41Z" fill="#472b29"/><path d="M52.21,25.48A13.26,13.26,0,1,0,45.6,43,13.26,13.26,0,0,0,52.21,25.48Zm-9,.36H36.44a1.65,1.65,0,0,1-1.63-1.64h0a1.63,1.63,0,0,1,1.63-1.62h6.75a1.63,1.63,0,0,1,0,3.26Z" fill="#e6e5e3"/><path d="M40.15,44.91a14,14,0,1,1,12.7-19.72h0a14,14,0,0,1-7,18.47A13.76,13.76,0,0,1,40.15,44.91Zm0-26.52A12.44,12.44,0,0,0,35,19.51a12.56,12.56,0,1,0,5.16-1.12Z" fill="#472b29"/><path d="M45.36,42.27H33.57s-.84.55-.84,1.23A1.35,1.35,0,0,0,34,44.86h2.61V53l1.29,1-1.21,1.08L38,56.75,36.65,58l1.27,1.43-1.27,1.39,1.19,1.07-1,1.15L40,68l3-3.81.06-19.29H45a1.45,1.45,0,0,0,1.44-1.08A1.22,1.22,0,0,0,45.36,42.27Z" fill="#f1bc19"/><path d="M40,68.46h0a.5.5,0,0,1-.4-.22l-3.22-5a.48.48,0,0,1,0-.6l.7-.78-.82-.73a.48.48,0,0,1-.16-.35.46.46,0,0,1,.13-.36l1-1.06-1-1.09a.52.52,0,0,1-.12-.36.51.51,0,0,1,.17-.35l1-.9-1.06-1.22a.49.49,0,0,1,0-.7l.77-.68-.83-.68a.47.47,0,0,1-.19-.38V45.36H34a1.63,1.63,0,0,1-1.14-.5,1.92,1.92,0,0,1-.57-1.36,2.29,2.29,0,0,1,1-1.65.57.57,0,0,1,.28-.08H45.36a1.59,1.59,0,0,1,1.23.6A1.8,1.8,0,0,1,47,43.88,1.92,1.92,0,0,1,45,45.36H43.6l-.06,18.8a.45.45,0,0,1-.1.3l-3,3.81A.53.53,0,0,1,40,68.46Zm-2.6-5.4,2.64,4L42.54,64l.06-19.12a.5.5,0,0,1,.5-.5H45a.94.94,0,0,0,.94-.68.81.81,0,0,0-.16-.68.57.57,0,0,0-.45-.23H33.73c-.21.17-.5.47-.5.73a.93.93,0,0,0,.29.65.61.61,0,0,0,.43.21h2.62a.5.5,0,0,1,.5.5V52.8l1.1.9a.54.54,0,0,1,.19.38.52.52,0,0,1-.17.38l-.84.74,1.06,1.22a.49.49,0,0,1,0,.7l-1,.9.94,1a.5.5,0,0,1,0,.67l-.94,1,.82.72a.51.51,0,0,1,.17.35.49.49,0,0,1-.13.36Zm3.15-38.6h-.09a5,5,0,0,1,.1-10h.09a4.85,4.85,0,0,1,2.77.93.37.37,0,0,1,.08.52.36.36,0,0,1-.52.08,4.2,4.2,0,0,0-2.34-.78h-.08a4.28,4.28,0,0,0-.08,8.55h.08a4.1,4.1,0,0,0,2.77-1.08.38.38,0,0,1,.5.56A4.89,4.89,0,0,1,40.58,24.46Z" fill="#472b29"/><path d="M44.7,42.73h-4l-.13,23.81,2-2.5.12-19.52,1.76,0c.57,0,1.57-.12,1.57-.89S45.51,42.73,44.7,42.73Z" fill="#fbcd59"/><path d="M40.75,60.91a.25.25,0,0,1-.25-.25V59.29a.25.25,0,1,1,.5,0v1.37A.25.25,0,0,1,40.75,60.91Zm0-3.06a.25.25,0,0,1-.25-.25V55.55a.25.25,0,0,1,.5,0V57.6A.25.25,0,0,1,40.75,57.85Zm0-4a.25.25,0,0,1-.25-.25V45.18a.25.25,0,0,1,.5,0v8.41A.25.25,0,0,1,40.75,53.84Z" fill="#472b29"/><path d="M43.2,26.36H36.45A1.93,1.93,0,0,1,35,25.76a2,2,0,0,1,1.41-3.41H43.2a2,2,0,0,1,0,4Zm-6.75-3.27a1.26,1.26,0,1,0,0,2.51H43.2a1.26,1.26,0,0,0,0-2.51Z" fill="#472b29"/><path d="M46.52,35a.82.82,0,0,1-.06.27.72.72,0,0,1-.58.38,1.42,1.42,0,0,1-.7-.14c-.22-.09-.43-.22-.64-.32-.51-.25-1.87-.83-2.44-.35a.45.45,0,0,0-.16.32,1.49,1.49,0,0,0,.38.93c.19.29.59.59.79.86s.85,1.07.18,1.48a.41.41,0,0,1-.29,0,.9.9,0,0,1-.21-.08.66.66,0,0,1-.27-.36c-.37-1-1.1-2.41-1.65-2.45a.33.33,0,0,0-.26.07.89.89,0,0,0-.21.67,5.37,5.37,0,0,0,.11,1.06l.15.6a.51.51,0,0,0,0,.13,4.69,4.69,0,0,1,0,1.35,2.6,2.6,0,0,1-.3,1,1.31,1.31,0,0,1-.8.62.9.9,0,0,1-.93-.31,1.39,1.39,0,0,1-.16-.35,2.15,2.15,0,0,1-.12-.5v0a3.11,3.11,0,0,1,.4-1.59c.27-.62,1-2.09.52-2.3-.19-.09-.41.06-.57.18a14.65,14.65,0,0,0-1.14,1.34,3.14,3.14,0,0,1-1.24.74,2.12,2.12,0,0,1-.61.11.89.89,0,0,1-.57-.19.5.5,0,0,1-.18-.35.69.69,0,0,1,.11-.28,2.07,2.07,0,0,1,.91-.69c.36-.15.74-.25,1.1-.39a3.44,3.44,0,0,0,.92-.5,1.84,1.84,0,0,0,.6-.83.56.56,0,0,0,0-.55.42.42,0,0,0-.18-.14,1.09,1.09,0,0,0-1,.11,8.6,8.6,0,0,1-.88.5,1.52,1.52,0,0,1-.73.11,1,1,0,0,1-.69-.31.61.61,0,0,1-.09-.71.79.79,0,0,1,.38-.27,2.43,2.43,0,0,1,1-.1,3.45,3.45,0,0,0,1.28,0c.16,0,.38-.09.41-.26A.6.6,0,0,0,38,33a1.66,1.66,0,0,0-.43-.32,8.56,8.56,0,0,1-2.3-1.51,1.89,1.89,0,0,1-.31-.53.82.82,0,0,1,.4-1,.57.57,0,0,1,.57.1,1.6,1.6,0,0,1,.36.49,5.88,5.88,0,0,0,1,1.42,1.87,1.87,0,0,0,1.54.62,1,1,0,0,0,.75-.51,1.92,1.92,0,0,0-.05-1.06,2.55,2.55,0,0,1,0-.78,1,1,0,0,1,.16-.48.51.51,0,0,1,.44-.21c.29,0,.42.38.39.66s-.22.53-.23.81c0,1.42.92,1.08,1.31.47a6.26,6.26,0,0,0,.44-.74,7.32,7.32,0,0,1,1.26-2,1.33,1.33,0,0,1,.43-.35.64.64,0,0,1,.54,0,.59.59,0,0,1,.27.54,1.13,1.13,0,0,1-.23.58,2.33,2.33,0,0,1-.49.55c-2.22,1.93-1.66,2.41-1.51,2.48a.78.78,0,0,0,.48,0,2.94,2.94,0,0,0,1-.31,7,7,0,0,1,.71-.39h0l0,0a.88.88,0,0,1,.85.08.38.38,0,0,1,.17.26.52.52,0,0,1-.17.43,1.33,1.33,0,0,1-.77.32,4.55,4.55,0,0,0-.59.1,3.89,3.89,0,0,0-.73.21c-.45.19-.74.47-.53.89.1.23.46.19.71.21h.18c.64,0,1.28,0,1.92,0a1.09,1.09,0,0,1,.86.3A.87.87,0,0,1,46.52,35Z" fill="#ff6c37"/><path d="M39.6,27.43c-.14.34-.29,1,.39,1.06a.51.51,0,0,0,.49-.28C41.06,27,39.85,26.81,39.6,27.43Z" fill="#ff6c37"/><path d="M32.57,34.65c0,.37.4.89,1.21.64a.7.7,0,0,0,.41-.7.57.57,0,0,0,0-.29.63.63,0,0,0-.39-.34C33.25,33.78,32.55,34,32.57,34.65Z" fill="#ff6c37"/><path d="M44,40.11c.41.76,1.86.51,1.14-.78a.77.77,0,0,0-1-.37A.93.93,0,0,0,44,40.11Z" fill="#ff6c37"/><path d="M40.72,39.42a2.6,2.6,0,0,1-.3,1,1.31,1.31,0,0,1-.8.62.9.9,0,0,1-.93-.31,1.39,1.39,0,0,1-.16-.35,2.15,2.15,0,0,1-.12-.5v0a1.09,1.09,0,0,0,1.14.29,2.31,2.31,0,0,0,1.13-2.06A4.69,4.69,0,0,1,40.72,39.42Z" fill="#ff916a"/><path d="M43.65,28.63a1,1,0,0,1-.22.58c-2,2.45-1.31,3-1.2,3-.18-.14-.44-.7,1.56-2.44a2.33,2.33,0,0,0,.49-.55,1.13,1.13,0,0,0,.23-.58.59.59,0,0,0-.27-.54.64.64,0,0,0-.54,0l-.18.11A.61.61,0,0,1,43.65,28.63Z" fill="#ff916a"/><path d="M45.34,32.31a1.33,1.33,0,0,1-.77.32,4.55,4.55,0,0,0-.59.1c.23-.12.45-.29.58-.37.41-.26,0-.68-.07-.74l-.07-.05h0l0,0a.88.88,0,0,1,.85.08.38.38,0,0,1,.17.26A.52.52,0,0,1,45.34,32.31Z" fill="#ff916a"/><path d="M42.32,36.07a1.49,1.49,0,0,1-.38-.93.45.45,0,0,1,.16-.32.7.7,0,0,1,.24-.13c-1.19.18-.26,1.79-.14,2s.73,1.15.44,1.58a.87.87,0,0,0,.15.13.9.9,0,0,0,.21.08.41.41,0,0,0,.29,0c.67-.41,0-1.22-.18-1.48S42.51,36.36,42.32,36.07Z" fill="#ff916a"/><path d="M46.39,34.33a1.09,1.09,0,0,0-.86-.3h-.71a1,1,0,0,1,.72.29.87.87,0,0,1,.13.65,1.18,1.18,0,0,1-.06.27.65.65,0,0,1-.3.29,1.24,1.24,0,0,0,.57.09.72.72,0,0,0,.58-.38.82.82,0,0,0,.06-.27A.87.87,0,0,0,46.39,34.33Z" fill="#ff916a"/><path d="M38.63,36.24a.29.29,0,0,0-.15-.29c-.19-.09-.41.06-.57.18a14.65,14.65,0,0,0-1.14,1.34,3,3,0,0,1-1.25.73l-.13,0a1,1,0,0,0,.38.07,2.12,2.12,0,0,0,.61-.11,3.14,3.14,0,0,0,1.24-.74C38,37.1,38.24,36.6,38.63,36.24Z" fill="#ff916a"/><path d="M35.46,30.22a6.12,6.12,0,0,0,2.71,2,2.1,2.1,0,0,1-.9-.57,5.88,5.88,0,0,1-1-1.42,1.6,1.6,0,0,0-.36-.49.57.57,0,0,0-.57-.1.85.85,0,0,0-.22.16A3.23,3.23,0,0,1,35.46,30.22Z" fill="#ff916a"/><path d="M46.56,34.2a1.3,1.3,0,0,0-1-.38c-.3,0-.6,0-.89,0s-.81,0-1.2,0h-.16c-.14,0-.35,0-.38-.08a.29.29,0,0,1,0-.29c.15-.27.78-.5,1.7-.61a1.42,1.42,0,0,0,.89-.39.68.68,0,0,0,.23-.6.62.62,0,0,0-.25-.4,1.09,1.09,0,0,0-1-.1,2.93,2.93,0,0,0-.56.28l-.25.14a2.59,2.59,0,0,1-.89.29.59.59,0,0,1-.35,0s0,0,0-.09,0-.68,1.61-2a2.65,2.65,0,0,0,.53-.59,1.41,1.41,0,0,0,.26-.69.8.8,0,0,0-.37-.73.83.83,0,0,0-.74,0,1.81,1.81,0,0,0-.5.39,7.8,7.8,0,0,0-1.3,2,4.38,4.38,0,0,1-.38.65l0,.06c-.18.29-.49.48-.67.43s-.26-.34-.25-.77a1.4,1.4,0,0,1,.11-.37,1.8,1.8,0,0,0,.12-.43.77.77,0,0,0-.57-.89.72.72,0,0,0-.64.3,1.22,1.22,0,0,0-.2.58,2.57,2.57,0,0,0,0,.83,1.89,1.89,0,0,0,.05.23,1.37,1.37,0,0,1,0,.72.77.77,0,0,1-.59.38,1.66,1.66,0,0,1-1.36-.55l-.07-.08a.21.21,0,0,0-.3,0,.2.2,0,0,0,0,.29l.08.09a2.2,2.2,0,0,0,1.51.69h.22a1.17,1.17,0,0,0,.92-.64,1.53,1.53,0,0,0,0-1c0-.07,0-.14,0-.21a2.41,2.41,0,0,1,0-.71.81.81,0,0,1,.12-.38.29.29,0,0,1,.24-.13c.15,0,.23.24.21.42a1.12,1.12,0,0,1-.1.33,1.37,1.37,0,0,0-.13.51c0,.46.07,1,.54,1.18a1.14,1.14,0,0,0,1.16-.6l0-.07a5.35,5.35,0,0,0,.41-.7,7.49,7.49,0,0,1,1.22-1.92,1.13,1.13,0,0,1,.37-.29.39.39,0,0,1,.35,0,.36.36,0,0,1,.15.34,1,1,0,0,1-.18.48,2.15,2.15,0,0,1-.46.5C42.4,30.69,41.83,31.48,41.9,32a.54.54,0,0,0,.29.41,1,1,0,0,0,.6,0,3.38,3.38,0,0,0,1-.33l.27-.16a2.76,2.76,0,0,1,.48-.25.74.74,0,0,1,.65,0,.2.2,0,0,1,.09.14.31.31,0,0,1-.11.24,1.09,1.09,0,0,1-.65.26c-1.11.14-1.79.41-2,.83a.7.7,0,0,0,0,.67c.15.3.5.31.75.32h.14a10.43,10.43,0,0,0,1.25,0h.87a.94.94,0,0,1,.69.22.69.69,0,0,1,.09.5.47.47,0,0,1-.45.46,1.13,1.13,0,0,1-.59-.12L45,35.17a.22.22,0,0,0-.29.09.21.21,0,0,0,.09.28l.29.15a1.82,1.82,0,0,0,.68.15h.13a.94.94,0,0,0,.75-.5,1,1,0,0,0,.09-.33A1.1,1.1,0,0,0,46.56,34.2Z" fill="#1c272b"/><path d="M43.3,36.83l0,0a2.89,2.89,0,0,0-.38-.41,3.16,3.16,0,0,1-.4-.45l-.07-.1a1.1,1.1,0,0,1-.28-.69.33.33,0,0,1,.08-.18c.28-.23.94-.16,1.8.19a.21.21,0,0,0,.28-.11.21.21,0,0,0-.11-.28c-1.07-.43-1.82-.47-2.24-.12a.68.68,0,0,0-.23.46,1.39,1.39,0,0,0,.35,1l.06.1a3.65,3.65,0,0,0,.46.52,3.6,3.6,0,0,1,.34.36l0,0c.13.16.46.6.41.9a.41.41,0,0,1-.19.24.31.31,0,0,1-.13,0,.44.44,0,0,1-.15,0,.49.49,0,0,1-.18-.25,9.24,9.24,0,0,0-.78-1.64c-.38-.62-.72-.93-1-1a.53.53,0,0,0-.43.13,1.08,1.08,0,0,0-.27.82,5.08,5.08,0,0,0,.12,1.1l.06.29c0,.11.06.21.08.32a5.59,5.59,0,0,1,.08.59.21.21,0,0,0,.21.2h0a.21.21,0,0,0,.2-.22,3.74,3.74,0,0,0-.09-.66c0-.11,0-.22-.07-.32s0-.19-.07-.29a4.87,4.87,0,0,1-.1-1,.71.71,0,0,1,.13-.51.1.1,0,0,1,.1,0c.14,0,.4.21.73.75a9.41,9.41,0,0,1,.74,1.56.87.87,0,0,0,.36.47.77.77,0,0,0,.28.1.57.57,0,0,0,.44,0,.76.76,0,0,0,.38-.52A1.73,1.73,0,0,0,43.3,36.83Z" fill="#1c272b"/><path d="M40.74,39.21a.21.21,0,0,0-.23.18,2.27,2.27,0,0,1-.28.9,1.1,1.1,0,0,1-.66.53.7.7,0,0,1-.7-.23,1,1,0,0,1-.14-.3,1.94,1.94,0,0,1-.11-.45A3.11,3.11,0,0,1,39,38.33a1,1,0,0,0,.07-.15,11.31,11.31,0,0,0,.52-1.28c.07-.23.28-.94-.17-1.14s-.65.1-.79.21a3.58,3.58,0,0,0-.71.8,5,5,0,0,1-.45.56,2.92,2.92,0,0,1-1.16.68,2.16,2.16,0,0,1-.54.1.65.65,0,0,1-.43-.14.26.26,0,0,1-.1-.18.29.29,0,0,1,.07-.17,1.87,1.87,0,0,1,.82-.62l.62-.22.46-.16a3.47,3.47,0,0,0,1-.53,2.18,2.18,0,0,0,.68-.94.82.82,0,0,0-.06-.73.71.71,0,0,0-.27-.21,1.26,1.26,0,0,0-1.16.11l-.36.22a3.14,3.14,0,0,1-.5.28,1.36,1.36,0,0,1-.63.09.83.83,0,0,1-.55-.24.4.4,0,0,1-.07-.46.56.56,0,0,1,.28-.18,2,2,0,0,1,.94-.09l.28,0a2.62,2.62,0,0,0,1.08,0h0c.18-.05.49-.14.54-.42a.8.8,0,0,0-.22-.67,1.67,1.67,0,0,0-.49-.36l-.48-.27A6.46,6.46,0,0,1,35.45,31a1.21,1.21,0,0,1-.26-.46.6.6,0,0,1,.29-.74.35.35,0,0,1,.34.08,1.28,1.28,0,0,1,.31.42l.07.13c.09.16.18.32.28.48a.21.21,0,0,0,.29.08.21.21,0,0,0,.07-.29c-.09-.15-.18-.32-.26-.47l-.08-.13a1.68,1.68,0,0,0-.41-.55.75.75,0,0,0-.79-.13,1,1,0,0,0-.51,1.27,1.8,1.8,0,0,0,.35.6A6.9,6.9,0,0,0,37,32.61l.48.26a1.36,1.36,0,0,1,.38.27.42.42,0,0,1,.12.31.53.53,0,0,1-.23.09h0a2.32,2.32,0,0,1-.91,0l-.29,0a2.54,2.54,0,0,0-1.13.11,1,1,0,0,0-.49.35A.82.82,0,0,0,35,35a1.2,1.2,0,0,0,.83.38,1.81,1.81,0,0,0,.83-.12,2.88,2.88,0,0,0,.57-.32l.33-.2a.93.93,0,0,1,.78-.1.27.27,0,0,1,.1.08.39.39,0,0,1,0,.35,1.65,1.65,0,0,1-.54.74,3.29,3.29,0,0,1-.86.47l-.45.15-.65.24a2.22,2.22,0,0,0-1,.76.82.82,0,0,0-.15.39.68.68,0,0,0,.25.51,1.06,1.06,0,0,0,.71.25h0a2.36,2.36,0,0,0,.66-.12,3.46,3.46,0,0,0,1.34-.79,5.69,5.69,0,0,0,.49-.61,3.3,3.3,0,0,1,.62-.71c.22-.17.31-.18.35-.16s.1.1-.06.64A12.9,12.9,0,0,1,38.69,38c0,.06,0,.11-.08.16a3.49,3.49,0,0,0-.41,1.73,2.52,2.52,0,0,0,.13.54,1.33,1.33,0,0,0,.19.4,1.08,1.08,0,0,0,.88.43,1.24,1.24,0,0,0,.27,0,1.53,1.53,0,0,0,.93-.72,2.65,2.65,0,0,0,.33-1.07A.21.21,0,0,0,40.74,39.21Z" fill="#1c272b"/><path d="M40,28.7H40a.74.74,0,0,0,.65-.4,1.1,1.1,0,0,0,0-1.16.7.7,0,0,0-.67-.27.79.79,0,0,0-.64.48h0a1.24,1.24,0,0,0,0,1A.7.7,0,0,0,40,28.7Zm-.18-1.19h0a.35.35,0,0,1,.29-.22h0a.27.27,0,0,1,.22.11c.11.14.08.41-.07.73a.29.29,0,0,1-.28.16c-.2,0-.25-.09-.27-.12A.82.82,0,0,1,39.8,27.51Z" fill="#1c272b"/><path d="M33.83,33.76a1.27,1.27,0,0,0-1.11.14.89.89,0,0,0-.37.75,1,1,0,0,0,.4.73,1.12,1.12,0,0,0,.63.19,1.71,1.71,0,0,0,.46-.08.88.88,0,0,0,.57-.89,1.08,1.08,0,0,0-.06-.38A.86.86,0,0,0,33.83,33.76Zm.15.83c0,.15,0,.43-.26.5A.8.8,0,0,1,33,35a.5.5,0,0,1-.22-.39.45.45,0,0,1,.19-.4.86.86,0,0,1,.72-.08.44.44,0,0,1,.27.22A.62.62,0,0,1,34,34.59Z" fill="#1c272b"/><path d="M44.62,38.7a.76.76,0,0,0-.6.08.88.88,0,0,0-.35.66,1.32,1.32,0,0,0,.14.76,1.05,1.05,0,0,0,.89.55h0a.8.8,0,0,0,.71-.36,1.12,1.12,0,0,0-.12-1.16A1.07,1.07,0,0,0,44.62,38.7Zm.45,1.47a.39.39,0,0,1-.35.16.62.62,0,0,1-.53-.32.76.76,0,0,1,.07-.88.33.33,0,0,1,.15,0l.11,0a.65.65,0,0,1,.43.33C45.12,39.75,45.17,40,45.07,40.17Z" fill="#1c272b"/></svg>