<?xml version="1.0" encoding="utf-8"?>
<!-- Generator: Adobe Illustrator 26.0.1, SVG Export Plug-In . SVG Version: 6.00 Build 0)  -->
<svg version="1.1" id="Слой_1" xmlns="http://www.w3.org/2000/svg" xmlns:xlink="http://www.w3.org/1999/xlink" x="0px" y="0px"
	 viewBox="0 0 87.8 73.2" style="enable-background:new 0 0 87.8 73.2;" xml:space="preserve">
<style type="text/css">
	.st0{opacity:0.9;fill:#FF6C37;enable-background:new    ;}
	.st1{fill:#FFFFFF;}
	.st2{fill:#472B29;}
	.st3{fill:#E6E5E3;}
	.st4{fill:#DEE0E0;}
	.st5{fill:#FF6C37;}
	.st6{fill:#D65B5B;}
	.st7{fill:#E2AD17;}
	.st8{fill:#E8A664;}
	.st9{fill:#414A56;}
	.st10{fill:#CE942B;}
	.st11{fill:#FF6C37;stroke:#472B29;stroke-width:0.25;stroke-miterlimit:10;}
</style>
<path class="st0" d="M82.5,43.8c0.3-0.6,0.6-1.3,0.8-2c2.6-7.8-1.3-17.1-9.7-19.3C72.7,11.1,64.7,3.4,55.6,2
	c-10.3-1.5-19.8,5.1-23,15.5c-3.6-1.4-7.7-1.1-11,0.9c-1.6,0.8-3.1,1.9-4.3,3.2c-1.9,2.1-3.2,4.7-3.6,7.5c-0.7,0.1-1.5,0.3-2.2,0.5
	c-4,1.3-6.8,4.8-7.3,8.9c-0.3,2.3,0.1,4.6,0.9,6.7c1.8,4.4,6.3,7,11,6.3c0.3,0,0.5,0.1,0.8,0.2c0.1,6.7,3.4,13,8.9,17
	c8.3,5.8,19,4,25.8-3.9c2.6,2.9,6.5,4.4,10.4,3.9c4-0.5,7.4-2.9,9.4-6.3c1,0.3,2,0.6,3.1,0.8c4,0.5,7.3-1.2,9.7-4.8
	c0.1-0.1,0.2-0.2,0.3-0.3l1-2.4c0.2-1.2,0.4-2.4,0.4-3.6C86,48.9,84.8,45.9,82.5,43.8z"/>
<g>
	<path class="st1" d="M71.3,47.7h3.5c2.1,0.1,3.8-1.5,3.9-3.6c0.1-1.9-1.2-3.5-3.1-3.8c0-0.2,0-0.3,0-0.5c-0.1-2.2-2-3.9-4.2-3.8
		c-1.1,0.1-2.2,0.6-2.9,1.5c-0.2-2.4-2.4-4.2-4.8-3.9c-1.9,0.2-3.4,1.6-3.8,3.4c-0.1,0.5-0.1,1.1,0,1.7c-0.5-0.5-1.2-0.9-2-0.8
		c-1.4,0-2.6,1.1-2.7,2.5c-2-0.5-4,0.7-4.5,2.7s0.7,4,2.7,4.5c0.3,0.1,0.6,0.1,1,0.1h8.8"/>
	<line class="st1" x1="64.8" y1="47.7" x2="65.2" y2="47.7"/>
	<path class="st2" d="M74.8,48.2h-3.5c-0.3,0-0.5-0.2-0.5-0.5s0.2-0.5,0.5-0.5h3.5c1.8,0.1,3.3-1.3,3.4-3.1c0.1-1.6-1.1-3-2.7-3.3
		c-0.3-0.1-0.4-0.3-0.4-0.5c0-0.1,0-0.3,0-0.4c0-1.9-1.6-3.4-3.5-3.4c-1.1,0-2.1,0.5-2.8,1.3c-0.2,0.2-0.5,0.3-0.7,0.1
		c-0.1-0.1-0.2-0.2-0.2-0.4c-0.1-1-0.6-2-1.4-2.6c-0.8-0.7-1.9-1-3-0.9c-2.1,0.2-3.6,2.1-3.4,4.1c0,0.1,0,0.3,0.1,0.4
		c0.1,0.3-0.1,0.5-0.4,0.6c-0.2,0-0.3,0-0.5-0.1c-0.4-0.4-1-0.7-1.6-0.7c-1.1,0-2.1,0.9-2.2,2c0,0.1-0.1,0.3-0.2,0.4
		c-0.1,0.1-0.3,0.1-0.4,0.1c-0.6-0.1-1.3-0.1-1.8,0.1c-1.2,0.4-2.1,1.6-2.2,2.9c0,0.9,0.3,1.7,0.9,2.3c0.6,0.7,1.5,1,2.4,1h8.8
		c0.3,0,0.5,0.2,0.5,0.5s-0.2,0.5-0.5,0.5h-8.8c-1.2,0-2.3-0.5-3.1-1.3C50.4,46,50,44.9,50,43.7c0.1-1.7,1.2-3.2,2.8-3.8
		c0.6-0.2,1.3-0.3,1.9-0.2c0.4-1.4,1.7-2.4,3.1-2.4c0.5,0,1,0.1,1.4,0.3c0-0.2,0-0.5,0.1-0.7c0.4-2,2.1-3.6,4.2-3.8
		c1.3-0.2,2.7,0.2,3.7,1c0.7,0.6,1.3,1.4,1.5,2.3c1.9-1.5,4.8-1.2,6.3,0.7c0.6,0.8,0.9,1.7,1,2.6v0.1c2.2,0.7,3.5,3,2.8,5.3
		C78.4,47,76.7,48.2,74.8,48.2L74.8,48.2z"/>
	<path class="st2" d="M65.2,48.2h-0.4c-0.3,0-0.5-0.2-0.5-0.5s0.2-0.5,0.5-0.5h0.4c0.3,0,0.5,0.2,0.5,0.5S65.4,48.2,65.2,48.2z"/>
</g>
<path class="st1" d="M79.7,56.9h-10c-0.3,0-0.5-0.2-0.5-0.5s0.2-0.5,0.5-0.5h10c0.3,0,0.5,0.2,0.5,0.5S79.9,56.9,79.7,56.9z
	 M82.5,56.9h-1.4c-0.3,0-0.5-0.2-0.5-0.5s0.2-0.5,0.5-0.5h1.4c0.3,0,0.5,0.2,0.5,0.5S82.8,56.9,82.5,56.9z M86.6,56.9h-2.5
	c-0.3,0-0.5-0.2-0.5-0.5s0.2-0.5,0.5-0.5h2.6c0.3,0,0.5,0.2,0.5,0.5S86.9,56.9,86.6,56.9z M86.6,58.8H77c-0.3,0-0.5-0.2-0.5-0.5
	s0.2-0.5,0.5-0.5h9.6c0.3,0,0.5,0.2,0.5,0.5C87.1,58.5,86.9,58.8,86.6,58.8z M75.3,58.8h-0.6c-0.3,0-0.5-0.2-0.5-0.5
	s0.2-0.5,0.5-0.5h0.6c0.3,0,0.5,0.2,0.5,0.5C75.8,58.5,75.6,58.8,75.3,58.8z M72.9,58.8h-1.5c-0.3,0-0.5-0.2-0.5-0.5
	s0.2-0.5,0.5-0.5h1.4c0.3,0,0.5,0.2,0.5,0.5S73.2,58.8,72.9,58.8L72.9,58.8z M82.1,55h-5c-0.3,0-0.5-0.2-0.5-0.5s0.2-0.5,0.5-0.5h5
	c0.3,0,0.5,0.2,0.5,0.5C82.6,54.8,82.3,55,82.1,55C82,55,82,55,82.1,55L82.1,55z M82.1,53.2h-1.3c-0.3,0-0.5-0.2-0.5-0.5
	s0.2-0.5,0.5-0.5H82c0.3,0,0.5,0.2,0.5,0.5S82.3,53.2,82.1,53.2L82.1,53.2z M78.8,60.6H77c-0.3,0-0.5-0.2-0.5-0.5s0.2-0.5,0.5-0.5
	h1.8c0.3,0,0.5,0.2,0.5,0.5C79.2,60.4,79,60.6,78.8,60.6L78.8,60.6z M13.7,39.3h-10c-0.3,0-0.5-0.2-0.5-0.5s0.2-0.5,0.5-0.5h10
	c0.3,0,0.5,0.2,0.5,0.5S13.9,39.3,13.7,39.3z M16.5,39.3h-1.4c-0.3,0-0.5-0.2-0.5-0.5s0.2-0.5,0.5-0.5h1.4c0.3,0,0.5,0.2,0.5,0.5
	S16.8,39.3,16.5,39.3z M20.6,39.3h-2.5c-0.3,0-0.5-0.2-0.5-0.5s0.2-0.5,0.5-0.5h2.5c0.3,0,0.5,0.2,0.5,0.5S20.9,39.3,20.6,39.3z
	 M18.6,35.6H9c-0.3,0-0.5-0.2-0.5-0.5s0.2-0.5,0.5-0.5h9.6c0.3,0,0.5,0.2,0.5,0.5S18.9,35.6,18.6,35.6L18.6,35.6z M7.2,35.6H6.6
	c-0.3,0-0.5-0.2-0.5-0.5s0.2-0.5,0.5-0.5h0.6c0.3,0,0.5,0.2,0.5,0.5S7.5,35.6,7.2,35.6L7.2,35.6z M4.9,35.6H3.4
	c-0.3,0-0.5-0.2-0.5-0.5s0.2-0.5,0.5-0.5h1.4c0.3,0,0.5,0.2,0.5,0.5S5.1,35.6,4.9,35.6L4.9,35.6z M16,37.5h-5
	c-0.3,0-0.5-0.2-0.5-0.5s0.2-0.5,0.5-0.5h5c0.3,0,0.5,0.2,0.5,0.5C16.5,37.3,16.3,37.5,16,37.5C16,37.5,16,37.5,16,37.5L16,37.5z"/>
<path class="st1" d="M16,35.6h-1.3c-0.3,0-0.5-0.2-0.5-0.5s0.2-0.5,0.5-0.5H16c0.3,0,0.5,0.2,0.5,0.5S16.3,35.6,16,35.6z M9.5,37.5
	H7.8c-0.3,0-0.5-0.2-0.5-0.5c0-0.3,0.2-0.5,0.5-0.5h1.8c0.3,0,0.5,0.2,0.5,0.5S9.8,37.5,9.5,37.5z"/>
<g>
	<path class="st1" d="M44.5,52.4h14c3.4,0,6.1-2.7,6.1-6.1c0-0.1,0-0.2,0-0.3c-0.1-2.5-1.7-4.6-4-5.5c-1.1-0.4-2.3-0.5-3.4-0.2
		c-0.2-2.4-2.3-4.2-4.7-4c-1.1,0.1-2.1,0.6-2.8,1.3c0.2-0.9,0.2-1.8,0-2.7c-0.7-3.8-4.3-6.3-8.1-5.6c-3.1,0.6-5.5,3.2-5.7,6.4
		c-2.1-2.8-6-3.3-8.8-1.2c-1.6,1.2-2.5,3.1-2.5,5c0,0.3,0,0.5,0,0.8c-3.3,0.7-5.4,3.9-4.7,7.2c0.6,2.8,3.1,4.8,5.9,4.8h14.7"/>
	<path class="st2" d="M58.5,53h-14c-0.3,0-0.6-0.3-0.6-0.6s0.3-0.6,0.6-0.6h14c3,0,5.5-2.4,5.5-5.4c0-0.1,0-0.2,0-0.3
		c-0.1-2.2-1.5-4.1-3.6-4.9c-1-0.4-2-0.4-3-0.2c-0.2,0-0.4,0-0.5-0.1c-0.1-0.1-0.2-0.3-0.2-0.5c-0.2-2.1-1.9-3.6-4-3.4
		c-0.9,0.1-1.8,0.5-2.4,1.2c-0.2,0.2-0.5,0.3-0.7,0.1c-0.2-0.1-0.4-0.4-0.3-0.7c0.7-3.4-1.5-6.7-4.9-7.4C44,30,43.9,30,43.7,30
		c-1.7-0.2-3.5,0.3-4.8,1.4c-1.3,1.1-2.2,2.7-2.3,4.4c0,0.3-0.2,0.5-0.4,0.5c-0.2,0.1-0.5,0-0.7-0.2c-1.9-2.5-5.4-3-7.9-1.1
		c-1.4,1.1-2.3,2.8-2.3,4.5c0,0.2,0,0.5,0,0.7c0,0.3-0.2,0.6-0.5,0.7c-2.9,0.6-4.8,3.5-4.2,6.5c0.5,2.5,2.7,4.3,5.3,4.3h14.7
		c0.3,0,0.6,0.3,0.6,0.6S40.9,53,40.6,53H25.9c-3.7,0-6.7-3-6.7-6.7c0-3,2-5.6,4.8-6.4c0-0.1,0-0.2,0-0.3c0-3.8,3.1-6.9,6.9-6.9
		c1.7,0,3.3,0.6,4.6,1.8c1.1-4,5.2-6.4,9.3-5.4c2.8,0.7,4.9,3,5.5,5.9c0.1,0.5,0.1,1,0.1,1.4c2.4-1.3,5.4-0.5,6.8,1.9
		c0.2,0.4,0.4,0.9,0.5,1.4c1-0.1,2.1,0,3.1,0.4c2.5,1,4.3,3.3,4.4,6.1c0.2,3.7-2.7,6.8-6.4,7C58.7,53,58.6,53,58.5,53L58.5,53z"/>
</g>
<g id="_x34_98_x2C__student__x2C__notes__x2C__note_x2C__education">
	<g>
		<path class="st3" d="M66.1,21.6v31.6H33.8V37V21.6h2.7c0,0,0,0,0,0h28.8c0.1,0,0.1,0,0.2,0H66.1z"/>
		<path class="st4" d="M34.6,37.9V22.5h2.7c0,0,0,0,0,0h28.8c0,0,0,0,0.1,0v-0.9h-0.8c-0.1,0-0.1,0-0.2,0H36.5c0,0,0,0,0,0h-2.7V37
			v16.2h0.8V37.9z"/>
		<rect x="58" y="46.7" class="st5" width="3.2" height="2.4"/>
		<polygon class="st6" points="58.6,47.3 61.3,47.3 61.3,46.7 58,46.7 58,49.1 58.6,49.1 		"/>
		<rect x="58" y="33.7" class="st7" width="3.2" height="13"/>
		<polygon class="st8" points="58.6,34.4 61.3,34.4 61.3,33.7 58,33.7 58,46.7 58.6,46.7 		"/>
		<polygon class="st3" points="59.7,28.9 61.3,33.7 58,33.7 		"/>
		<polygon class="st9" points="60,29.8 59.7,28.9 58,33.7 58.7,33.7 		"/>
		<path class="st10" d="M67,17.2c0.5,0.5,0.7,1.1,0.7,1.8c0,1.3-1,2.4-2.4,2.5H36.5c0.9-0.5,1.4-1.5,1.4-2.6c0-1-0.5-2-1.3-2.5h28.7
			C65.9,16.5,66.6,16.8,67,17.2z"/>
		<g>
			<g>
				<g>
					<path class="st10" d="M37.4,17.3h28.1c0.7,0,1.3,0.3,1.8,0.8c0.2,0.2,0.3,0.4,0.4,0.6c-0.1-0.6-0.3-1.1-0.7-1.5
						c-0.5-0.5-1.1-0.8-1.8-0.8H36.5C36.9,16.7,37.2,17,37.4,17.3z"/>
				</g>
				<g>
					<path class="st10" d="M38.2,19.8c0-0.5-0.1-0.9-0.3-1.3c0,0.2,0,0.3,0,0.5c0,1.1-0.6,2-1.4,2.6h1.1
						C38,21.1,38.2,20.5,38.2,19.8z"/>
				</g>
			</g>
		</g>
		<path class="st7" d="M36.5,16.5c0.8,0.6,1.3,1.5,1.3,2.5c0,1.1-0.6,2-1.4,2.6h-2.7V37h-2.4V20c0-2.1,1.6-3.8,3.8-3.6L36.5,16.5z"
			/>
		<path class="st10" d="M32,20.5c0-2.1,1.6-3.8,3.8-3.6l1.5,0.1c0,0,0,0,0,0c-0.2-0.2-0.4-0.4-0.6-0.6l-1.5-0.1
			c-2.1-0.2-3.8,1.5-3.8,3.6v17H32V20.5z"/>
		<path class="st2" d="M66.1,53.5H33.8c-0.2,0-0.4-0.2-0.4-0.4V21.6c0-0.2,0.2-0.4,0.4-0.4h32.4c0.2,0,0.4,0.2,0.4,0.4v31.6
			C66.5,53.4,66.4,53.5,66.1,53.5z M34.2,52.7h31.6V22H34.2V52.7z"/>
		<path class="st2" d="M65.2,22H36.5c-0.2,0-0.4-0.2-0.4-0.4s0.2-0.4,0.4-0.4h28.8c0,0,0.1,0,0.1,0c1.1-0.1,2-1,2-2.1
			c0-0.6-0.2-1.1-0.6-1.5c-0.4-0.4-0.9-0.6-1.5-0.6H36.5c-0.2,0-0.4-0.2-0.4-0.4s0.2-0.4,0.4-0.4h28.7c0.8,0,1.5,0.3,2.1,0.9
			c0.5,0.6,0.9,1.3,0.9,2.1c0,1.6-1.2,2.8-2.8,2.9C65.3,22,65.3,22,65.2,22z"/>
		<path class="st2" d="M33.8,37.4h-2.4c-0.2,0-0.4-0.2-0.4-0.4V20c0-1.2,0.5-2.3,1.3-3c0.8-0.7,1.8-1.1,2.9-1l1.5,0.1
			c0.1,0,0.1,0,0.2,0.1c1,0.6,1.5,1.7,1.5,2.9c0,0.2-0.2,0.4-0.4,0.4s-0.4-0.2-0.4-0.4c0-0.8-0.4-1.6-1.1-2.1l-1.3-0.1
			c-0.9-0.1-1.7,0.2-2.3,0.8c-0.7,0.6-1,1.5-1,2.4v16.6h2c0.2,0,0.4,0.2,0.4,0.4S34,37.4,33.8,37.4z"/>
		<path class="st2" d="M36.5,22c-0.1,0-0.3-0.1-0.3-0.2c-0.1-0.2-0.1-0.4,0.1-0.6c0,0,0,0,0,0c0.8-0.5,1.2-1.3,1.2-2.2
			c0-0.2,0.2-0.4,0.4-0.4s0.4,0.2,0.4,0.4c0,1.2-0.6,2.3-1.6,2.9C36.6,22,36.5,22,36.5,22z"/>
		<path class="st2" d="M54.8,30.1H37c-0.2,0-0.4-0.2-0.4-0.4s0.2-0.4,0.4-0.4h17.8c0.2,0,0.4,0.2,0.4,0.4S55,30.1,54.8,30.1z"/>
		<path class="st2" d="M54.8,33.3H37c-0.2,0-0.4-0.2-0.4-0.4s0.2-0.4,0.4-0.4h17.8c0.2,0,0.4,0.2,0.4,0.4S55,33.3,54.8,33.3z"/>
		<path class="st2" d="M54.8,36.5H37c-0.2,0-0.4-0.2-0.4-0.4s0.2-0.4,0.4-0.4h17.8c0.2,0,0.4,0.2,0.4,0.4S55,36.5,54.8,36.5z"/>
		<path class="st2" d="M54.8,39.8H37c-0.2,0-0.4-0.2-0.4-0.4S36.8,39,37,39h17.8c0.2,0,0.4,0.2,0.4,0.4S55,39.8,54.8,39.8z"/>
		<path class="st2" d="M54.8,43H37c-0.2,0-0.4-0.2-0.4-0.4s0.2-0.4,0.4-0.4h17.8c0.2,0,0.4,0.2,0.4,0.4S55,43,54.8,43z"/>
		<path class="st2" d="M54.8,46.3H37c-0.2,0-0.4-0.2-0.4-0.4s0.2-0.4,0.4-0.4h17.8c0.2,0,0.4,0.2,0.4,0.4S55,46.3,54.8,46.3z"/>
		<path class="st2" d="M54.8,49.5h-5.3c-0.2,0-0.4-0.2-0.4-0.4s0.2-0.4,0.4-0.4h5.3c0.2,0,0.4,0.2,0.4,0.4S55,49.5,54.8,49.5z"/>
		<path class="st2" d="M61.3,47.1c-0.2,0-0.4-0.2-0.4-0.4v-13c0-0.2,0.2-0.4,0.4-0.4s0.4,0.2,0.4,0.4v13
			C61.7,46.9,61.5,47.1,61.3,47.1z"/>
		<path class="st2" d="M58,47.1c-0.2,0-0.4-0.2-0.4-0.4v-13c0-0.2,0.2-0.4,0.4-0.4s0.4,0.2,0.4,0.4v13C58.5,46.9,58.3,47.1,58,47.1z
			"/>
		<path class="st2" d="M61.3,49.5H58c-0.2,0-0.4-0.2-0.4-0.4v-2.4c0-0.2,0.2-0.4,0.4-0.4h3.2c0.2,0,0.4,0.2,0.4,0.4v2.4
			C61.7,49.3,61.5,49.5,61.3,49.5z M58.5,48.7h2.4v-1.6h-2.4V48.7z"/>
		<path class="st2" d="M61.3,34.1H58c-0.1,0-0.3-0.1-0.3-0.2c-0.1-0.1-0.1-0.2-0.1-0.4l1.6-4.9c0.1-0.2,0.2-0.3,0.4-0.3
			c0.2,0,0.3,0.1,0.4,0.3l1.6,4.9c0,0.1,0,0.3-0.1,0.4C61.5,34.1,61.4,34.1,61.3,34.1z M58.6,33.3h2.1l-1.1-3.2L58.6,33.3z"/>
		<path class="st2" d="M63.7,47.1h-2.4c-0.2,0-0.4-0.2-0.4-0.4s0.2-0.4,0.4-0.4h2V41c0-0.2,0.2-0.4,0.4-0.4s0.4,0.2,0.4,0.4v5.7
			C64.1,46.9,63.9,47.1,63.7,47.1z"/>
		<g>
			<path class="st11" d="M41.3,25.7l0.3,0.5l0.1,0.1v0.1c0,0.1,0,0.2-0.1,0.2s-0.2,0.1-0.3,0.1c-0.1,0-0.2-0.1-0.3-0.2L40.6,26
				l-0.4,0.6c0,0-0.1,0.1-0.1,0.1l-0.2,0c-0.1,0-0.2,0-0.2-0.1c-0.1-0.1-0.1-0.1-0.1-0.2c0-0.1,0-0.1,0.1-0.2l0.3-0.5h-0.6
				c-0.1,0-0.2,0-0.3-0.1c-0.1-0.1-0.1-0.2-0.1-0.2c0-0.1,0-0.2,0.1-0.2s0.1-0.1,0.3-0.1H40l-0.3-0.5l-0.1-0.1v-0.1
				c0-0.1,0-0.2,0.1-0.2C39.8,24,39.9,24,40,24c0.1,0,0.2,0.1,0.3,0.2l0.4,0.6l0.4-0.6c0,0,0.1-0.1,0.1-0.1c0.1,0,0.1,0,0.2,0
				c0.1,0,0.1,0,0.2,0.1c0.1,0.1,0.1,0.2,0.1,0.2c0,0.1,0,0.1-0.1,0.2L41.3,25h0.6c0.1,0,0.2,0,0.2,0.1s0.1,0.1,0.1,0.2
				c0,0.1,0,0.2-0.1,0.2s-0.1,0.1-0.3,0.1H41.3z"/>
			<path class="st11" d="M45.7,25.7l0.3,0.5l0.1,0.1v0.1c0,0.1,0,0.2-0.1,0.2s-0.2,0.1-0.3,0.1c-0.1,0-0.2-0.1-0.3-0.2L45.1,26
				l-0.4,0.6c0,0-0.1,0.1-0.1,0.1l-0.2,0c-0.1,0-0.2,0-0.2-0.1c-0.1-0.1-0.1-0.1-0.1-0.2c0-0.1,0-0.1,0.1-0.2l0.3-0.5h-0.6
				c-0.1,0-0.2,0-0.3-0.1c-0.1-0.1-0.1-0.2-0.1-0.2c0-0.1,0-0.2,0.1-0.2s0.1-0.1,0.3-0.1h0.6l-0.3-0.5l-0.1-0.1v-0.1
				c0-0.1,0-0.2,0.1-0.2c0.1-0.1,0.2-0.1,0.3-0.1c0.1,0,0.2,0.1,0.3,0.2l0.4,0.6l0.4-0.6c0,0,0.1-0.1,0.1-0.1c0.1,0,0.1,0,0.2,0
				c0.1,0,0.1,0,0.2,0.1c0.1,0.1,0.1,0.2,0.1,0.2c0,0.1,0,0.1-0.1,0.2L45.7,25h0.6c0.1,0,0.2,0,0.2,0.1s0.1,0.1,0.1,0.2
				c0,0.1,0,0.2-0.1,0.2s-0.1,0.1-0.3,0.1H45.7z"/>
			<path class="st11" d="M50.2,25.7l0.3,0.5l0.1,0.1v0.1c0,0.1,0,0.2-0.1,0.2s-0.2,0.1-0.3,0.1c-0.1,0-0.2-0.1-0.3-0.2L49.5,26
				l-0.4,0.6c0,0-0.1,0.1-0.1,0.1l-0.2,0c-0.1,0-0.2,0-0.2-0.1c-0.1-0.1-0.1-0.1-0.1-0.2c0-0.1,0-0.1,0.1-0.2l0.3-0.5h-0.6
				c-0.1,0-0.2,0-0.3-0.1C48,25.5,48,25.4,48,25.3c0-0.1,0-0.2,0.1-0.2s0.1-0.1,0.3-0.1h0.6l-0.3-0.5l-0.1-0.1v-0.1
				c0-0.1,0-0.2,0.1-0.2c0.1-0.1,0.2-0.1,0.3-0.1c0.1,0,0.2,0.1,0.3,0.2l0.4,0.6l0.4-0.6c0,0,0.1-0.1,0.1-0.1c0.1,0,0.1,0,0.2,0
				c0.1,0,0.1,0,0.2,0.1c0.1,0.1,0.1,0.2,0.1,0.2c0,0.1,0,0.1-0.1,0.2L50.2,25h0.6c0.1,0,0.2,0,0.2,0.1s0.1,0.1,0.1,0.2
				c0,0.1,0,0.2-0.1,0.2s-0.1,0.1-0.3,0.1H50.2z"/>
			<path class="st11" d="M54.6,25.7l0.3,0.5l0.1,0.1v0.1c0,0.1,0,0.2-0.1,0.2s-0.2,0.1-0.3,0.1c-0.1,0-0.2-0.1-0.3-0.2L54,26
				l-0.4,0.6c0,0-0.1,0.1-0.1,0.1l-0.2,0c-0.1,0-0.2,0-0.2-0.1c-0.1-0.1-0.1-0.1-0.1-0.2c0-0.1,0-0.1,0.1-0.2l0.3-0.5h-0.6
				c-0.1,0-0.2,0-0.3-0.1c-0.1-0.1-0.1-0.2-0.1-0.2c0-0.1,0-0.2,0.1-0.2s0.1-0.1,0.3-0.1h0.6L53,24.5l-0.1-0.1v-0.1
				c0-0.1,0-0.2,0.1-0.2c0.1-0.1,0.2-0.1,0.3-0.1c0.1,0,0.2,0.1,0.3,0.2l0.4,0.6l0.4-0.6c0,0,0.1-0.1,0.1-0.1c0.1,0,0.1,0,0.2,0
				c0.1,0,0.1,0,0.2,0.1c0.1,0.1,0.1,0.2,0.1,0.2c0,0.1,0,0.1-0.1,0.2L54.6,25h0.6c0.1,0,0.2,0,0.2,0.1s0.1,0.1,0.1,0.2
				c0,0.1,0,0.2-0.1,0.2s-0.1,0.1-0.3,0.1H54.6z"/>
			<path class="st11" d="M59.1,25.7l0.3,0.5l0,0.1v0.1c0,0.1,0,0.2-0.1,0.2c-0.1,0.1-0.2,0.1-0.3,0.1c-0.1,0-0.2-0.1-0.3-0.2
				L58.4,26L58,26.6c0,0-0.1,0.1-0.1,0.1l-0.2,0c-0.1,0-0.2,0-0.2-0.1c-0.1-0.1-0.1-0.1-0.1-0.2c0-0.1,0-0.1,0.1-0.2l0.3-0.5h-0.6
				c-0.1,0-0.2,0-0.3-0.1c-0.1-0.1-0.1-0.2-0.1-0.2c0-0.1,0-0.2,0.1-0.2C57,25,57.1,25,57.2,25h0.6l-0.3-0.5l0-0.1v-0.1
				c0-0.1,0-0.2,0.1-0.2c0.1-0.1,0.2-0.1,0.3-0.1c0.1,0,0.2,0.1,0.3,0.2l0.4,0.6l0.4-0.6c0,0,0.1-0.1,0.1-0.1c0.1,0,0.1,0,0.2,0
				c0.1,0,0.1,0,0.2,0.1c0.1,0.1,0.1,0.2,0.1,0.2c0,0.1,0,0.1-0.1,0.2L59.1,25h0.6c0.1,0,0.2,0,0.2,0.1c0.1,0.1,0.1,0.1,0.1,0.2
				c0,0.1,0,0.2-0.1,0.2c-0.1,0.1-0.1,0.1-0.3,0.1H59.1z"/>
		</g>
	</g>
</g>
<g>
	<path class="st1" d="M33.2,64.3h11.3c2.7,0,4.9-2.2,4.9-4.9c0-0.1,0-0.1,0-0.2c-0.1-2-1.4-3.7-3.2-4.4c-0.9-0.3-1.8-0.4-2.7-0.2
		c-0.2-1.9-1.8-3.4-3.8-3.2c-0.9,0.1-1.7,0.4-2.2,1.1c0.1-0.7,0.1-1.5,0-2.2c-0.5-3-3.5-5-6.5-4.5c-2.5,0.5-4.4,2.6-4.6,5.1
		c-1.7-2.2-4.9-2.7-7.1-1c-1.3,1-2,2.5-2,4c0,0.2,0,0.4,0,0.6c-2.6,0.6-4.3,3.2-3.7,5.8c0.5,2.2,2.5,3.8,4.7,3.9H30"/>
	<path class="st2" d="M44.4,64.8H33.2c-0.3,0-0.5-0.2-0.5-0.5c0-0.3,0.2-0.5,0.5-0.5h11.3c2.4,0,4.4-2,4.4-4.4c0-0.1,0-0.1,0-0.2
		c-0.1-1.8-1.2-3.3-2.9-3.9c-0.8-0.3-1.6-0.4-2.4-0.2c-0.1,0-0.3,0-0.4-0.1c-0.1-0.1-0.2-0.2-0.2-0.4c-0.1-1.7-1.6-2.9-3.2-2.8
		c-0.7,0.1-1.4,0.4-2,0.9c-0.2,0.2-0.4,0.2-0.6,0.1c-0.2-0.1-0.3-0.3-0.3-0.5c0.6-2.7-1.2-5.4-3.9-6c-0.1,0-0.3-0.1-0.4-0.1
		c-1.4-0.2-2.8,0.2-3.9,1.1c-1.1,0.9-1.7,2.2-1.8,3.5c0,0.2-0.2,0.4-0.4,0.4c-0.2,0.1-0.4,0-0.5-0.2c-1.5-2-4.4-2.4-6.4-0.9
		c-1.2,0.9-1.8,2.2-1.8,3.7c0,0.2,0,0.4,0,0.6c0,0.3-0.1,0.5-0.4,0.5c-2.4,0.5-3.9,2.9-3.4,5.2c0.4,2,2.2,3.4,4.3,3.5H30
		c0.3,0,0.5,0.2,0.5,0.5c0,0.3-0.2,0.5-0.5,0.5H18.3c-3,0-5.4-2.4-5.4-5.4c0-2.4,1.6-4.5,3.9-5.2c0-0.1,0-0.2,0-0.2
		c0-3.1,2.5-5.6,5.6-5.6c1.4,0,2.7,0.5,3.7,1.4c0.9-3.3,4.2-5.2,7.5-4.3c2.2,0.6,4,2.4,4.4,4.7c0.1,0.4,0.1,0.8,0.1,1.2
		c1.9-1.1,4.4-0.4,5.4,1.6c0.2,0.3,0.3,0.7,0.4,1.1c0.8-0.1,1.7,0,2.5,0.3c2,0.8,3.4,2.7,3.6,4.9c0.1,3-2.2,5.5-5.2,5.6
		C44.6,64.8,44.5,64.8,44.4,64.8L44.4,64.8z"/>
	<path class="st2" d="M43.6,60.4c-0.1,0-0.2-0.1-0.3-0.2c-0.2-1.4-1.4-2.4-2.8-2.2c-0.2,0-0.4,0.1-0.6,0.1c-0.1,0-0.1,0-0.2,0
		c-0.1,0-0.1-0.1-0.1-0.2c-0.2-0.9-1-1.5-1.9-1.4c-0.5,0-1,0.3-1.3,0.6c-0.1,0.1-0.2,0.1-0.3,0.1c-0.1,0-0.2-0.2-0.1-0.3
		c0-0.2,0-0.4,0-0.5c-0.2-1.6-1.6-2.7-3.2-2.6l0,0c-0.1,0-0.2-0.2-0.2-0.3c0-0.1,0.1-0.2,0.2-0.2c1.9-0.2,3.5,1.1,3.7,3l0,0
		c0.4-0.2,0.8-0.4,1.2-0.4c1.1-0.1,2,0.6,2.4,1.6c0.1,0,0.3,0,0.4,0c1.6-0.2,3.1,1,3.3,2.7c0,0,0,0.1,0,0.1
		C43.8,60.3,43.7,60.4,43.6,60.4C43.6,60.4,43.6,60.4,43.6,60.4L43.6,60.4z"/>
</g>
</svg>
