<svg id="Слой_1" data-name="Слой 1" xmlns="http://www.w3.org/2000/svg" viewBox="0 0 87.83 73.17"><title>apple-touch-iconМонтажная область 1176</title><path d="M82.27,43.71A15.58,15.58,0,0,0,74.15,22v0a20.72,20.72,0,0,0-40.84-5.24A14.5,14.5,0,0,0,28.68,16,14.88,14.88,0,0,0,14,29.25,11.51,11.51,0,0,0,16.32,52l.52,0c0,.17,0,.34,0,.52A20.38,20.38,0,0,0,37.08,73a20.13,20.13,0,0,0,15.75-7.61,11.76,11.76,0,0,0,19-2.91,10.6,10.6,0,0,0,3.3.52,11,11,0,0,0,7.13-19.29Z" fill="#ff6c37" opacity="0.9"/><path d="M42.08,45.54a3.08,3.08,0,0,0,.06-.54,3.48,3.48,0,0,0-3.46-3.5,3.42,3.42,0,0,0-2.56,1.17,3.95,3.95,0,0,0-7.82.83,5.29,5.29,0,0,0,.05.56,2.38,2.38,0,0,0-1.53-.56,2.48,2.48,0,0,0-2.43,2.06,3.19,3.19,0,0,0-.54-.06,3.5,3.5,0,0,0,0,7H41.64a3.5,3.5,0,0,0,.44-7Z" fill="#fff"/><path d="M39.91,48a.25.25,0,0,1-.24-.25,2.21,2.21,0,0,1,2.19-2.22,6.16,6.16,0,0,1,1.23.14.25.25,0,0,1-.13.48,5.13,5.13,0,0,0-1.1-.12,1.71,1.71,0,0,0-1.7,1.72A.25.25,0,0,1,39.91,48Zm-6.67,4a.5.5,0,0,0,0,1,.5.5,0,1,0,0-1Z" fill="#472b29"/><path d="M42.63,45.14V45a3.93,3.93,0,0,0-6.27-3.23,4.44,4.44,0,0,0-8.54,1.41,2.85,2.85,0,0,0-1-.18A3,3,0,0,0,24,45h-.17a4,4,0,0,0,0,8h7.41a.5.5,0,1,0,0-1H23.85a3,3,0,0,1,0-6,3.41,3.41,0,0,1,.46,0,.5.5,0,0,0,.57-.41A2,2,0,0,1,26.82,44a1.88,1.88,0,0,1,1.22.45.48.48,0,0,0,.55,0,.54.54,0,0,0,.24-.54,3,3,0,0,1,0-.42,3.45,3.45,0,0,1,6.84-.73.51.51,0,0,0,.36.38.48.48,0,0,0,.49-.15,3,3,0,0,1,2.2-1,3,3,0,0,1,3,3,3.73,3.73,0,0,1,0,.47.52.52,0,0,0,.09.38A.53.53,0,0,0,42,46a3,3,0,0,1-.38,6H38.18a.5.5,0,0,0,0,1h3.46a4,4,0,0,0,1-7.86Z" fill="#472b29"/><path d="M36.21,52h-1a.5.5,0,0,0,0,1h1a.5.5,0,0,0,0-1Z" fill="#472b29"/><path d="M11.38,38H1.49a.5.5,0,0,1,0-1h9.89a.5.5,0,0,1,0,1Zm3,0h-1a.5.5,0,0,1,0-1h1a.5.5,0,1,1,0,1Zm4.94,2H10.39a.5.5,0,0,1,0-1h8.89a.5.5,0,0,1,0,1ZM8.41,40h-1a.5.5,0,0,1,0-1h1a.5.5,0,0,1,0,1Zm-3,0h-2a.5.5,0,0,1,0-1h2a.5.5,0,0,1,0,1Zm5.93,2h-2a.5.5,0,0,1,0-1h2a.5.5,0,0,1,0,1Zm3-9h-1a.5.5,0,0,0,0,1h1a.5.5,0,1,0,0-1Zm0,2H9.4a.5.5,0,0,0,0,1h4.94a.5.5,0,1,0,0-1Zm4.95,2h-3a.5.5,0,0,0,0,1h3a.5.5,0,0,0,0-1ZM67.72,11H57.84a.5.5,0,0,1,0-1h9.88a.5.5,0,0,1,0,1Zm4,0h-2a.5.5,0,0,1,0-1h2a.5.5,0,0,1,0,1Zm4.94,2H66.74a.5.5,0,0,1,0-1h9.88a.5.5,0,0,1,0,1ZM64.76,13h-1a.5.5,0,0,1,0-1h1a.5.5,0,0,1,0,1Zm-3,0H59.82a.5.5,0,1,1,0-1h1.94a.5.5,0,0,1,0,1Zm8.93-4H65.75a.5.5,0,0,1,0-1h4.94a.5.5,0,0,1,0,1Zm-3,6h-2a.5.5,0,0,1,0-1h2a.5.5,0,0,1,0,1Z" fill="#fff"/><path d="M55.28,58.24V59a4,4,0,0,1-8,0v-.8Z" fill="#aab2bd"/><path d="M56.88,55.05v2.4a.79.79,0,0,1-.8.79H46.5a.79.79,0,0,1-.8-.79v-2.4Z" fill="#e6e5e3"/><path d="M56.88,52.66v2.39H45.7V52.66a.8.8,0,0,1,.8-.8h9.58A.8.8,0,0,1,56.88,52.66Z" fill="#ccd1d9"/><path d="M65.9,34.29l.26.55a2.12,2.12,0,0,1,.11.21c-1.9,8.82-9.87,11.89-10.56,16.81H46.3c-.69-4.92-8.66-8-10.56-16.81a2.12,2.12,0,0,1,.11-.21l.26-.55V29.5L35.85,29c-.1-.18-.19-.36-.3-.53a15.63,15.63,0,0,1,30.91,0c-.11.17-.2.35-.3.53l-.26.54Z" fill="#ffeaa7"/><path d="M43.19,28.53a1.54,1.54,0,0,0-.33-1.68l-.6-.6,3.39-3.38.6.6a1.52,1.52,0,0,0,1.67.32h0a1.54,1.54,0,0,0,1-1.42v-.85h4.79v.85a1.53,1.53,0,0,0,1,1.42h0a1.53,1.53,0,0,0,1.68-.32l.6-.6,3.38,3.38-.6.6a1.53,1.53,0,0,0-.32,1.68h0a1.53,1.53,0,0,0,1.42,1h.85v4.79h-.85a1.54,1.54,0,0,0-1.42,1v0a1.52,1.52,0,0,0,.32,1.67l.6.6-3.38,3.39-.6-.6A1.54,1.54,0,0,0,54.66,40h0a1.53,1.53,0,0,0-1,1.42v.85H48.9v-.85a1.54,1.54,0,0,0-1-1.42h0a1.52,1.52,0,0,0-1.67.33l-.6.6-3.39-3.39.6-.6a1.53,1.53,0,0,0,.33-1.67s0,0,0,0a1.54,1.54,0,0,0-1.42-1h4.49a5.58,5.58,0,0,0,10.09,0,5.58,5.58,0,0,0,0-4.79,5.58,5.58,0,0,0-10.09,0H41.76a1.53,1.53,0,0,0,1.42-1Z" fill="#e6e5e3"/><path d="M56.34,29.5a5.58,5.58,0,0,1,0,4.79H36.12l-.27.55a2.12,2.12,0,0,0-.11.21,4.82,4.82,0,0,1-4.18,2.44h-1a3.19,3.19,0,0,1-3.19-3.2h1.6a1.59,1.59,0,0,0,1.59-1.59V31.1a1.6,1.6,0,0,0-1.59-1.6h-1.6a3.18,3.18,0,0,1,3.19-3.19h1a4.83,4.83,0,0,1,4,2.12,5.54,5.54,0,0,1,.3.53l.27.54H56.34Z" fill="#f1bc19"/><path d="M75.24,29.5H73.65a1.6,1.6,0,0,0-1.6,1.6v1.6a1.6,1.6,0,0,0,1.6,1.59h1.59a3.19,3.19,0,0,1-3.19,3.2H71a4.83,4.83,0,0,1-4.18-2.44,2.12,2.12,0,0,0-.11-.21l-.27-.55H61.67V29.5h4.79l.27-.54a5.64,5.64,0,0,1,.31-.53,4.82,4.82,0,0,1,4-2.12h1a3.18,3.18,0,0,1,3.19,3.19Z" fill="#fbcd59"/><path d="M73.65,30.3H76v-.8a4,4,0,0,0-4-4H71a5.61,5.61,0,0,0-3.53,1.25,16.77,16.77,0,0,0-32.4,0,5.58,5.58,0,0,0-3.52-1.25h-1a4,4,0,0,0-4,4v.8h2.4a.8.8,0,0,1,.8.8v1.6a.79.79,0,0,1-.8.79h-2.4v.8a4,4,0,0,0,4,4h1a5.57,5.57,0,0,0,3.81-1.51c1.37,4.29,4.18,7.2,6.48,9.59,1.71,1.77,3.21,3.33,3.71,5a1.62,1.62,0,0,0-.67,1.3v4.79A1.6,1.6,0,0,0,46.5,59a4.79,4.79,0,0,0,9.58,0,1.6,1.6,0,0,0,1.6-1.59V52.66a1.62,1.62,0,0,0-.67-1.3c.5-1.67,2-3.23,3.72-5,2.3-2.39,5.1-5.3,6.47-9.59A5.58,5.58,0,0,0,71,38.28h1a4,4,0,0,0,4-4v-.8H73.65a.79.79,0,0,1-.8-.79V31.1a.8.8,0,0,1,.8-.8ZM51.29,15.93A15.1,15.1,0,0,1,66.19,28.3c0,.1-.12.2-.17.3l0,.1H60.82a.75.75,0,0,1-.69-.48.74.74,0,0,1,.16-.8l1.16-1.17-4.51-4.51L55.77,22.9a.76.76,0,0,1-1.28-.53V20.72H48.1v1.65a.76.76,0,0,1-1.29.53l-1.16-1.16-4.52,4.51,1.16,1.17a.76.76,0,0,1-.53,1.28H36.62l-.06-.1c-.05-.1-.11-.2-.17-.3A15.11,15.11,0,0,1,51.29,15.93Zm9.53,17.56a2.36,2.36,0,0,0-1.66,4l0,0L56.94,39.8l0,0a2.35,2.35,0,0,0-4,1.66v0h-3.2v0a2.35,2.35,0,0,0-4-1.66l0,0-2.26-2.26,0,0A2.32,2.32,0,0,0,44,35.09h1.81a6.39,6.39,0,1,0,0-6.38H44a2.34,2.34,0,0,0-.54-2.42l0,0L45.65,24l0,0a2.35,2.35,0,0,0,4-1.66v-.05h3.2v.05a2.36,2.36,0,0,0,4,1.66l0,0,2.25,2.26,0,0a2.35,2.35,0,0,0,1.66,4h0v3.19ZM50.49,43.08v8H48.74l-2.22-9.88.29-.29a.74.74,0,0,1,.83-.14.73.73,0,0,1,.46.68v1.65Zm5.59,9.58v1.59H46.5V52.66Zm-4-1.6v-8h2.4V41.43a.74.74,0,0,1,.48-.69.72.72,0,0,1,.8.16l.29.29-2.21,9.87Zm-4.36-16h7.12a4.76,4.76,0,0,1-7.12,0Zm7.12-6.39H47.73a4.78,4.78,0,0,1,7.12,0Zm-23.28,8h-1a2.4,2.4,0,0,1-2.26-1.6h.67a2.39,2.39,0,0,0,2.39-2.39V31.1a2.4,2.4,0,0,0-2.39-2.4h-.67a2.4,2.4,0,0,1,2.26-1.59h1a4,4,0,0,1,3.57,2.2l.49,1H55.8a4.72,4.72,0,0,1,.28,1.6,4.66,4.66,0,0,1-.28,1.59H35.63l-.49,1a4,4,0,0,1-3.57,2.21Zm5-1.55,0,0h5.14a.76.76,0,0,1,.53,1.29l-1.16,1.16,3.79,3.79L47,50.61c-.66-1.9-2.22-3.53-4-5.36-2.51-2.6-5.33-5.54-6.42-10.11Zm14.7,27.1A3.2,3.2,0,0,1,48.1,59h6.39A3.21,3.21,0,0,1,51.29,62.24ZM46.5,57.45v-1.6h9.58v1.6Zm13.08-12.2c-1.77,1.83-3.33,3.46-4,5.36l2.09-9.28,3.78-3.79-1.16-1.16a.76.76,0,0,1-.15-.83.74.74,0,0,1,.68-.46H66l0,0C64.9,39.71,62.08,42.65,59.58,45.25ZM73.65,35.09h.66a2.4,2.4,0,0,1-2.26,1.6H71a4,4,0,0,1-3.57-2.21l-.5-1H62.47V30.3H67l.5-1A4,4,0,0,1,71,27.11h1a2.4,2.4,0,0,1,2.26,1.59h-.66a2.41,2.41,0,0,0-2.4,2.4v1.6A2.4,2.4,0,0,0,73.65,35.09Z" fill="#472b29"/><path d="M82.06,54.5a3.19,3.19,0,0,0-.54.06A3.47,3.47,0,0,0,78.1,51.5a3.4,3.4,0,0,0-2.65,1.28,4.88,4.88,0,0,0,.18-1.28,4.93,4.93,0,0,0-9.86-.26,4.39,4.39,0,0,0-3.48-1.74A4.47,4.47,0,0,0,57.84,54a4.71,4.71,0,0,0,0,.54,4.49,4.49,0,0,0,.44,9H82.06a4.5,4.5,0,0,0,0-9Z" fill="#fff"/><path d="M82.06,54h-.14a4,4,0,0,0-3.82-3,3.78,3.78,0,0,0-2,.55v0a5.43,5.43,0,0,0-10.7-1.34A4.87,4.87,0,0,0,62.29,49a5,5,0,0,0-4.95,5s0,.08,0,.12a5,5,0,0,0,1,9.88h6.43a.5.5,0,0,0,0-1H58.33a4,4,0,0,1-.39-8,.5.5,0,0,0,.34-.18.51.51,0,0,0,.1-.38l0-.14c0-.11,0-.22,0-.34a4,4,0,0,1,4-4,3.9,3.9,0,0,1,3.09,1.54.49.49,0,0,0,.39.2l.15,0a.49.49,0,0,0,.35-.45,4.44,4.44,0,0,1,8.87.24A4.64,4.64,0,0,1,75,52.65a.52.52,0,0,0,.25.58.59.59,0,0,0,.23.05.49.49,0,0,0,.38-.18A2.93,2.93,0,0,1,78.1,52,3,3,0,0,1,81,54.62a.49.49,0,0,0,.49.43h.06l.14,0c.11,0,.22,0,.34,0a4,4,0,0,1,0,8H67.72a.5.5,0,0,0,0,1H82.06a5,5,0,0,0,0-10Z" fill="#472b29"/><path d="M79.15,57a2.34,2.34,0,0,0-.57.07A2.37,2.37,0,0,0,76.25,55a2.32,2.32,0,0,0-1.2.34A3,3,0,0,0,72.17,53a2.78,2.78,0,0,0-.81.13.25.25,0,0,0-.17.3.26.26,0,0,0,.24.19h.07a2.17,2.17,0,0,1,.67-.11,2.48,2.48,0,0,1,2.45,2.31.26.26,0,0,0,.16.21l.09,0A.24.24,0,0,0,75,56a1.88,1.88,0,0,1,1.22-.47,1.86,1.86,0,0,1,1.85,1.87.27.27,0,0,0,.1.21.25.25,0,0,0,.16.06h.06a2.3,2.3,0,0,1,.73-.13,2.43,2.43,0,0,1,2.4,2.27.23.23,0,0,0,.24.23h0a.26.26,0,0,0,.23-.27A2.93,2.93,0,0,0,79.15,57Zm-20.7-2.5a3,3,0,0,1,2.84,2.18.25.25,0,0,1-.17.31h-.07a.26.26,0,0,1-.24-.18A2.48,2.48,0,0,0,58.45,55a1.87,1.87,0,0,0-.34,0h0a.25.25,0,0,1,0-.5c.14,0,.27,0,.41,0Z" fill="#472b29"/></svg>